<svg xmlns="http://www.w3.org/2000/svg" width="536.541" height="284.814" viewBox="0 0 536.541 284.814"><g transform="translate(-75.426 -171.698)"><g transform="translate(461.75 173.716)"><path d="M347.9,349.315c-3.846,4.987-8.366,8.695-7.375,10.377,0,0,2.047,1.489,7.7,1.489,9.687,0,19.206-.738,17.643-1.72-2.167-1.36-8.438-1.852-14.43-3.926-1.481-.513,3.241-3.382,1.952-3.851A29.04,29.04,0,0,1,347.9,349.315Z" transform="translate(-319.539 -78.386)" fill="#002e4f"/><path d="M411.453,358.853s1.272,1.786,6.156,1.786c8.377,0,17.105-1.137,15.755-1.987-1.872-1.174-16.552-4.238-16.552-4.238l-3.292-4.088-5.583,3.089Z" transform="translate(-283.285 -77.843)" fill="#002e4f"/><g transform="translate(86.368 105.563)"><path d="M398.288,293.717a45.152,45.152,0,0,1-10.929-1.3,5.882,5.882,0,0,1,3.078-11.353c.2.054,13.431,3.442,21.15-3.183,5.168-4.436,7.13-12.789,5.835-24.829l-.412-3.84L428.9,242.47a5.881,5.881,0,1,1,5.8,10.233l-5.259,2.98c.831,14.181-2.614,24.66-10.262,31.178C412.73,292.357,404.681,293.717,398.288,293.717Z" transform="translate(-383.024 -241.705)" fill="#00a4e2"/></g><g transform="translate(83.818 124.941)"><path d="M419.533,254.315c-.223,8.553-2.5,14.742-6.808,18.441-8.467,7.269-22.972,3.562-23.221,3.5a6.457,6.457,0,0,0-3.381,12.464,28.485,28.485,0,0,0,12,2.368c25.025-.888,40.128-22.474,40.406-35.059Z" transform="translate(-381.365 -254.315)" fill="#e1f3f6"/></g><path d="M402.8,235.965c-2.242-1.005-4.444-2.093-6.614-3.235-20.735,11.808-47.228,26.936-47.752,27.463,0,0,13.167,20.965,14.009,21.806.539.541,33.188-22.88,56.677-39.85C413.7,240.051,408.111,238.347,402.8,235.965Z" transform="translate(-315.222 -140.959)" fill="#008dc4"/><path d="M386.219,240.215c5.429,2.4,11.133,4.134,16.653,6.3C415.8,237.172,425.8,229.9,425.8,229.9l-22.1-6.21s-10.636,6.038-23.739,13.5C382.014,238.26,384.1,239.277,386.219,240.215Z" transform="translate(-298.302 -145.811)" fill="#00afe2"/><path d="M359.238,221.527l13.013,35.23,25.438,9.334-32.223-58.863Z" transform="translate(-309.422 -154.646)" fill="#006091"/><path d="M391.744,251.164H372.9l16.775,29.306,25.573,10.781Z" transform="translate(-302.092 -131.065)" fill="#006091"/><path d="M432.521,331.184l-15-25.6L353.33,343.219l-12.623-21.532,7.926-128.015,28.846-16.91L429.4,265.328l17.469-10.242,14.528,24.783-17.469,10.241,15,25.594Zm-58.231-99.33-1.623.953-4.412,68.364,34.734-20.363Z" transform="translate(-319.368 -170.998)" fill="#0076ad"/><path d="M326.821,267.258l21.338,5.859,12.622,21.532-22.547-5.712Z" transform="translate(-326.821 -122.427)" fill="#008dc4"/><path d="M326.821,311.559l21.338,5.859L356.086,189.4l-19.578-4.685Z" transform="translate(-326.821 -166.728)" fill="#00afe2"/><path d="M333.125,191l19.578,4.685,28.845-16.91-19.826-5.764Z" transform="translate(-323.438 -173.011)" fill="#00d2fd"/><path d="M370.674,300.453s3.138,33.829,3.138,45.679c0,0-24.634,19.2-30.665,29.242,2.591,1.972,7.711,4.589,11.066,4.487a239.634,239.634,0,0,1,34.475-26.9s7.783-22.574,10.205-41.687Z" transform="translate(-318.059 -104.611)" fill="#002e4f"/><path d="M378.729,321.879a33.143,33.143,0,0,0,15.987-3.505c-1.6-6.755,1.809-26.688,6.092-37.341,0,0,3.379-7.416,1.011-9.7-8.762-8.427-16.22-7.737-18.539-7.83-8.043,6.789-23.009,26.827-22.41,53.307C365,321.158,373.4,321.843,378.729,321.879Z" transform="translate(-308.557 -124.44)" fill="#e1f3f6"/><path d="M433.049,381.977c3.207-.891,6.282-2.373,8.255-5-9.512-15.429-44.391-72.092-46.28-76.527-.049-.115-.092-.247-.137-.375a33.691,33.691,0,0,1-17.159,3.505c-5.162-.2-12.632-.922-16.846-4.742.011.273.012.542.025.819.728,14.791,49.793,64.107,69.1,82.964A25.185,25.185,0,0,0,433.049,381.977Z" transform="translate(-308.54 -105.475)" fill="#00396a"/><g transform="translate(11.415 138.372)"><path d="M346.06,306.785a12.194,12.194,0,0,1-3.92-.616c-2.594-.867-6.025-3.052-7.647-8.521a5.881,5.881,0,1,1,11.276-3.342,4.052,4.052,0,0,0,.283.728c.627.028,2.955-.177,8.626-3.508,5.065-2.974,11.057-7.407,16.852-11.693,9.79-7.246,19.037-14.086,26.674-16.5a5.881,5.881,0,0,1,3.55,11.213c-5.767,1.826-14.645,8.4-23.231,14.743C365.956,298.586,354.873,306.785,346.06,306.785Z" transform="translate(-334.249 -263.055)" fill="#00a4e2"/></g><g transform="translate(11.415 138.372)"><path d="M357.064,292.944c-.721-3.462-1.475-7.287-3.668-10.132-4.741,2.626-6.766,2.8-7.344,2.778a4.053,4.053,0,0,1-.283-.728,5.881,5.881,0,1,0-11.276,3.342c1.621,5.469,5.053,7.654,7.647,8.521a12.194,12.194,0,0,0,3.92.616c3.418,0,7.176-1.237,11.232-3.29Q357.177,293.5,357.064,292.944Z" transform="translate(-334.249 -253.611)" fill="#00a4e2"/><path d="M398.684,267.163a5.884,5.884,0,0,0-7.381-3.833c-7.637,2.417-16.884,9.257-26.674,16.5-5.795,4.286-11.787,8.719-16.852,11.693-.23.138-.449.258-.67.384,2.2,2.906,6.006,17.234,6.073,17.562,6.234-3.263,36.148-26.035,42.633-32.907C398.043,274.2,399.664,270.261,398.684,267.163Z" transform="translate(-327.348 -263.055)" fill="#e1f3f6"/></g><path d="M331.773,281.365" transform="translate(-324.164 -114.856)" fill="none" stroke="#20c6f0" stroke-linecap="round" stroke-miterlimit="10" stroke-width="7.654"/><g transform="translate(6.674 164.781)"><path d="M339.4,292.81a1.727,1.727,0,0,1-1-.321c-4.615-3.3-7.021-9.646-7.123-9.913a1.73,1.73,0,1,1,3.241-1.212h0c.022.057,2.148,5.637,5.893,8.311a1.73,1.73,0,0,1-1.008,3.136Z" transform="translate(-331.164 -280.24)" fill="#00a4e2"/></g><g transform="translate(9.282 158.884)"><path d="M338.491,290.653a1.725,1.725,0,0,1-1.414-.733c-2.207-3.127-3.975-10.559-4.171-11.393a1.73,1.73,0,0,1,3.37-.784c.487,2.093,2.087,8,3.625,10.181a1.731,1.731,0,0,1-1.411,2.729Z" transform="translate(-332.862 -276.403)" fill="#00a4e2"/></g><g transform="translate(13.463 156.851)"><path d="M339.418,290.39a1.73,1.73,0,0,1-1.6-1.077c-1.584-3.883-2.2-12.029-2.228-12.375a1.73,1.73,0,0,1,3.45-.255c.161,2.2.838,8.521,1.981,11.324a1.73,1.73,0,0,1-1.6,2.383Z" transform="translate(-335.582 -275.08)" fill="#00a4e2"/></g><g transform="translate(17.711 159.982)"><path d="M340.529,288.462a1.731,1.731,0,0,1-1.675-1.3,20.338,20.338,0,0,1-.052-8.716,1.73,1.73,0,0,1,3.367.793,17.068,17.068,0,0,0,.035,7.06,1.729,1.729,0,0,1-1.243,2.107A1.678,1.678,0,0,1,340.529,288.462Z" transform="translate(-338.346 -277.117)" fill="#00a4e2"/></g><g transform="translate(83.903 135.838)"><path d="M386.951,277.449a5.535,5.535,0,0,1-5-7.9,33.211,33.211,0,0,1,4.108-6.179,5.536,5.536,0,0,1,8.466,7.137h0a21.873,21.873,0,0,0-2.566,3.773A5.537,5.537,0,0,1,386.951,277.449Z" transform="translate(-381.42 -261.406)" fill="#00a4e2"/></g><g transform="translate(87.396 135.838)"><path d="M386.53,274.6c.655.724,1.342,1.4,2.056,2.053a5.5,5.5,0,0,0,2.154-2.374,21.874,21.874,0,0,1,2.566-3.773,5.536,5.536,0,0,0-8.466-7.137c-.109.132-.559.672-1.148,1.452C383.744,268.309,384.109,271.932,386.53,274.6Z" transform="translate(-383.693 -261.406)" fill="#0086cf"/></g><g transform="translate(88.268 121.752)"><path d="M404.4,273.413A10.465,10.465,0,0,1,390.74,279.1h0a10.468,10.468,0,0,1-5.687-13.666l2.769-6.714a10.464,10.464,0,0,1,13.664-5.687h0a10.466,10.466,0,0,1,5.684,13.663Z" transform="translate(-384.26 -252.24)" fill="#00a4e2"/></g><path d="M389.153,266.862c-.851,3.6-6.016,2.443-7.956.564-2.672-2.583-4.267-9.9,1.654-9.508-4.264-6.439,10.2-13.422,11.721-5.981,1.131-1.919,2.287-3.644,4.8-3.806,1.812-.115,4.985,1.286,4.722,3.507a7.5,7.5,0,0,1,9.271.187c.851.688,2.387,2.219,1.618,3.335-.423.615-2.6.805-3.332,1.027,1.259-.57,6.413.579,5.4,2.723-.472,1-3,.1-3.733-.112a2.21,2.21,0,0,0,0,.226c2.754,1.509,3.888,3.04,3.557,6.468-.152,1.575-.9,4.553-2.772,4.778-.96.114-2.068-.492-2.053-1.5,2.3,2.3-.957,8.444-3.862,5.412-1.139-1.188-.59-3.181.49-4.208-1.718-.988-5.446-6.213-2.794-7.611-1.24.029-6.98-1.918-5.154-3.57.483,1.916-1.889,4.4-3.776,3.41,1.174,2.554-2.277,4.461-4.4,4.55,1.3,1.632-2.7,3.571-3.925,1.2Z" transform="translate(-298.922 -132.696)" fill="#00396a"/></g><g transform="translate(236.173 178.984)"><path d="M257.689,252.284s-3.359-12.858,13.3-15.913l-1.269,15.45Z" transform="translate(-138.498 -144.273)" fill="#0089e0"/><g transform="translate(25.362 102.414)"><path d="M223.6,281.147a23.472,23.472,0,0,1-10.167-2.217c-15.135-7.152-16.818-28.64-16.881-29.551a5.881,5.881,0,0,1,11.731-.841c.329,4.324,2.8,16.294,10.2,19.77,6.112,2.869,15.59-.051,27.414-8.449a5.882,5.882,0,1,1,6.809,9.592C241.736,277.238,231.992,281.147,223.6,281.147Z" transform="translate(-196.534 -243.084)" fill="#cde5e8"/></g><g transform="translate(26.773)"><path d="M254.4,327.953c1.635-4.292,3.15-8.65,4.918-12.893a33.5,33.5,0,0,1-3.61-.478,29.459,29.459,0,0,1-14.49-6.963,35.16,35.16,0,0,1-9.17-13.5,58.207,58.207,0,0,1-3.76-18.579,98.659,98.659,0,0,1,8.238-43.133,58.356,58.356,0,0,1,10.324-15.768,35.189,35.189,0,0,1,13.5-9.167,31.078,31.078,0,0,1,28,3.948c1.667-3.327,3.459-6.593,5.165-9.85,2.015-3.853,3.886-7.777,5.678-11.736.765-1.693,1.429-3.436,2.124-5.165a62.714,62.714,0,0,0-19.446-7.007,59.915,59.915,0,0,0-28.738,1.1,64.443,64.443,0,0,0-24.266,13.462,81.634,81.634,0,0,0-18.313,23.71,120.219,120.219,0,0,0-12.5,65.453,81.642,81.642,0,0,0,8.283,28.789,64.39,64.39,0,0,0,17.6,21.459,59.208,59.208,0,0,0,24.229,11.19C250.355,337.922,252.485,332.986,254.4,327.953Z" transform="translate(-197.452 -176.439)" fill="#00afe2"/><path d="M316.1,236.535a81.72,81.72,0,0,0-8.284-28.79,64.508,64.508,0,0,0-17.594-21.46,55.481,55.481,0,0,0-6.254-4.26c-.69,1.727-1.348,3.468-2.127,5.154-1.827,3.945-3.656,7.883-5.678,11.734-1.724,3.278-3.531,6.566-5.208,9.918.6.455,1.177.928,1.741,1.432a36.338,36.338,0,0,1,9.282,13.52,56.609,56.609,0,0,1,3.9,18.485,98.741,98.741,0,0,1-8.24,43.133,56.457,56.457,0,0,1-10.462,15.86,36.235,36.235,0,0,1-13.612,9.145,28.276,28.276,0,0,1-11.482,1.706c-1.958,4.642-3.605,9.423-5.389,14.124-1.766,4.65-3.751,9.208-5.793,13.744.46.1.917.192,1.382.281a59.867,59.867,0,0,0,28.735-1.1,64.445,64.445,0,0,0,24.266-13.46,81.653,81.653,0,0,0,18.313-23.712,120.192,120.192,0,0,0,12.5-65.45Z" transform="translate(-179.501 -173.441)" fill="#006091"/><g transform="translate(17.97 6.107)"><path d="M261.923,347.236a59.958,59.958,0,0,1-26.307-11.619,64.369,64.369,0,0,1-17.594-21.46,81.594,81.594,0,0,1-8.286-28.79,120.235,120.235,0,0,1,12.5-65.45,81.64,81.64,0,0,1,18.313-23.71,64.458,64.458,0,0,1,24.266-13.463,63.854,63.854,0,0,1,55.042,10.514,64.494,64.494,0,0,1,17.6,21.46,81.739,81.739,0,0,1,8.284,28.79,120.2,120.2,0,0,1-12.5,65.452,81.651,81.651,0,0,1-18.313,23.71,64.414,64.414,0,0,1-24.266,13.462A59.95,59.95,0,0,1,261.923,347.236Zm5.48-28.678a29.042,29.042,0,0,0,15.805-1.177,36.268,36.268,0,0,0,13.612-9.145,56.529,56.529,0,0,0,10.462-15.859,98.726,98.726,0,0,0,8.238-43.136,56.6,56.6,0,0,0-3.9-18.484,36.364,36.364,0,0,0-9.283-13.52,29.082,29.082,0,0,0-14.259-6.92,29.515,29.515,0,0,0-16.039,1.133,35.181,35.181,0,0,0-13.5,9.168,58.319,58.319,0,0,0-10.322,15.767,98.761,98.761,0,0,0-8.24,43.134,58.248,58.248,0,0,0,3.762,18.577,35.162,35.162,0,0,0,9.168,13.5A29.452,29.452,0,0,0,267.4,318.558Z" transform="translate(-209.146 -180.413)" fill="#0076ad"/></g></g><g transform="translate(83.44 78.237)"><path d="M314.934,233.725l.449,21.62s-6.175,5.534-11.705,0L305.717,231Z" transform="translate(-197.107 -225.394)" fill="#00396a"/><path d="M300.488,345.591c-.353-.28-2.763-1.4-3.1-1.681a28.771,28.771,0,0,1-3.754,4.616,7.807,7.807,0,0,1,2.831,7.359,32.424,32.424,0,0,1-3.751,2.843c-3.364,1.657-9.568,3.959-9.568,3.959l15.624,1.225,11.588-11.871A73.356,73.356,0,0,1,300.488,345.591Z" transform="translate(-208.125 -164.791)" fill="#002e4f"/><path d="M265.477,345.578c-2.49-.435-5.629,1.471-7.654,0a51.4,51.4,0,0,0-.38,6.717l-23.115,9.532h29.52c.266-3.146-.3-6.165.126-9.079C264.191,351.25,265.205,347.021,265.477,345.578Z" transform="translate(-234.328 -163.931)" fill="#002e4f"/><path d="M281.231,277.283l-26.12,49.631s10.583,8.953,21,11.937L295.7,280.375Z" transform="translate(-223.173 -200.551)" fill="#cde5e8"/><path d="M302.042,377.535a36.951,36.951,0,0,0,4.149-5.457c-6.757-5.79-10.062-11.756-19.244-22.024-3.8-4.251,6.265-28.586,8.707-32.668,4.39-7.335,5.068-12.653,8.5-25.208l-25.509,9.529c-6.072,21.751-13.147,43.506-6.053,53.88,7.495,10.971,20.795,19.807,27.214,24.219C300.051,379.974,301.829,377.372,302.042,377.535Z" transform="translate(-215.384 -192.557)" fill="#002e4f"/><g transform="translate(41.977 17.82)"><path d="M263.373,248.349a1.729,1.729,0,0,1-1.4-2.737,14.711,14.711,0,0,0,2.511-5.243,1.73,1.73,0,0,1,3.408.6,17.75,17.75,0,0,1-3.107,6.662A1.728,1.728,0,0,1,263.373,248.349Z" transform="translate(-261.644 -238.947)" fill="#00a4e2"/></g><path d="M300,319.641c7.593-20.849,14.076-53.564,16.5-66.62a32.813,32.813,0,0,0-3.743-1.282c-2.253-.621-4.953-1.354-7.263-.636a13.954,13.954,0,0,0-3.239,1.612,37.239,37.239,0,0,0-1.337,5.222s-16.311,31.179-26.937,52.441A105.948,105.948,0,0,1,300,319.641Z" transform="translate(-213.042 -214.761)" fill="#f6ee9e"/><path d="M287.592,289.99l-.012-.006c-.94,1.885-1.835,3.69-2.665,5.379h-.008c-2.09,3.7-4.343,7.129-6.525,10.419-20.987,31.643-28.913,56.865-30.313,68.8,2,1.564,9.583,2.449,12.108,2.887,3.873-19.785,13.947-32.416,32-47.339,6.041-4.994,10.56-11.34,14.531-16.606,2.367-3.14,4.715-8.174,6.969-14.268A105.66,105.66,0,0,0,287.592,289.99Z" transform="translate(-226.953 -193.734)" fill="#00396a"/><g transform="translate(34.39 35.382)"><path d="M262.59,319.953a5.881,5.881,0,0,1-1.927-11.438c7.136-2.473,18.079-12.228,25.459-22.691,14.974-21.231,25.487-33,25.928-33.494a5.88,5.88,0,1,1,8.755,7.851h0a395.411,395.411,0,0,0-25.072,32.42c-7.283,10.328-20.16,23.192-31.217,27.026A5.852,5.852,0,0,1,262.59,319.953Z" transform="translate(-256.707 -250.375)" fill="#00a4e2"/></g><g transform="translate(93.794 23.295)"><path d="M300.9,259.423c-.135,0-.272-.006-.41-.015a5.538,5.538,0,0,1-5.116-5.926,33.172,33.172,0,0,1,1.609-7.244,5.535,5.535,0,0,1,10.465,3.608,22.13,22.13,0,0,0-1.033,4.443A5.541,5.541,0,0,1,300.9,259.423Z" transform="translate(-295.363 -242.509)" fill="#00a4e2"/></g><g transform="translate(96.108 23.295)"><path d="M301.716,253.584a25.024,25.024,0,0,0,3.179,3.041,5.507,5.507,0,0,0,.716-2.336,22.127,22.127,0,0,1,1.033-4.443,5.533,5.533,0,0,0-9.775-4.959C297.379,248.013,299.932,251.535,301.716,253.584Z" transform="translate(-296.869 -242.509)" fill="#0086cf"/></g><g transform="translate(94.29 4.422)"><path d="M316.613,248.192a10.466,10.466,0,0,1-10.7,10.227h0a10.465,10.465,0,0,1-10.227-10.7l.163-7.263a10.464,10.464,0,0,1,10.7-10.228h0a10.466,10.466,0,0,1,10.227,10.7Z" transform="translate(-295.686 -230.228)" fill="#00a4e2"/></g><g transform="translate(22.644 98.063)"><path d="M258.388,296.438a21.7,21.7,0,0,1-8.264-1.949,1.73,1.73,0,0,1,1.34-3.19c4.553,1.915,8.177,2.188,10.484.793a1.729,1.729,0,1,1,1.79,2.958A10.133,10.133,0,0,1,258.388,296.438Z" transform="translate(-249.063 -291.164)" fill="#00a4e2"/></g><g transform="translate(24.461 101.108)"><path d="M259.824,297.889a29.914,29.914,0,0,1-7.473-1.143l-.779-.186a1.73,1.73,0,0,1,.807-3.364l.785.189c4.2,1.014,6.969,1.686,13.1.1a1.731,1.731,0,0,1,.864,3.353A28.961,28.961,0,0,1,259.824,297.889Z" transform="translate(-250.246 -293.145)" fill="#00a4e2"/></g><g transform="translate(21.952 93.415)"><path d="M258.511,294.654a14.832,14.832,0,0,1-9.337-3.511,1.729,1.729,0,0,1,2.333-2.554,10.916,10.916,0,0,0,9.5,2.284,1.73,1.73,0,1,1,.862,3.35A13.44,13.44,0,0,1,258.511,294.654Z" transform="translate(-248.613 -288.139)" fill="#00a4e2"/></g><g transform="translate(26.673 90.386)"><path d="M260.487,293.855c-.068,0-.135-.006-.2-.012a11.148,11.148,0,0,1-8.386-5.111,1.73,1.73,0,0,1,3.026-1.678,7.7,7.7,0,0,0,5.761,3.353,1.73,1.73,0,0,1-.2,3.448Z" transform="translate(-251.685 -286.168)" fill="#00a4e2"/></g><g transform="translate(41.616 24.527)"><path d="M275.939,248.5a1.623,1.623,0,0,1-.283-.025c-2.864-.473-10.7-1.706-12.517-1.706a1.73,1.73,0,0,1,0-3.461c2.434,0,12,1.574,13.081,1.755a1.73,1.73,0,0,1-.281,3.436Z" transform="translate(-261.409 -243.311)" fill="#00a4e2"/></g><g transform="translate(40.817 27.35)"><path d="M275.111,251.147a1.666,1.666,0,0,1-.456-.061c-.083-.022-8.309-2.261-12.135-2.479a1.729,1.729,0,0,1,.2-3.453c4.191.238,12.5,2.5,12.85,2.6a1.73,1.73,0,0,1-.455,3.4Z" transform="translate(-260.889 -245.148)" fill="#00a4e2"/></g><g transform="translate(40.205 30.696)"><path d="M274.492,253.782a1.807,1.807,0,0,1-.532-.08c-7.79-2.516-9.709-2.669-10.739-2.752a7.491,7.491,0,0,1-1.443-.221,1.73,1.73,0,1,1,.885-3.345,4.2,4.2,0,0,0,.833.118c1.256.1,3.353.27,11.525,2.907a1.728,1.728,0,0,1-.53,3.373Z" transform="translate(-260.491 -247.326)" fill="#00a4e2"/></g><g transform="translate(42.524 34.449)"><path d="M270.26,255.242c-.04,0-.083,0-.124-.006-7.8-.558-8.125-4.792-8.135-5.274l3.459-.081a.41.41,0,0,0-.009-.112c0,.018.36,1.692,4.933,2.019a1.73,1.73,0,0,1-.123,3.455Z" transform="translate(-262 -249.768)" fill="#00a4e2"/></g><path d="M266.095,256.968a9.944,9.944,0,0,0-3.84-.693c-1.967,0-4.641-3.338-4.641-6.8,0,0-.96-10.213,9.821-5.594Z" transform="translate(-221.842 -219.123)" fill="#00a4e2"/><path d="M290.5,282.88,275.383,357.3s23.407,5.64,37.765-2.629l3.631-103.4S300.713,245.647,290.5,282.88Z" transform="translate(-212.293 -214.675)" fill="#cde5e8"/><path d="M288.031,298.651l14.479-.778s.347,22.141-8.3,21.277C294.209,319.15,282.373,321.737,288.031,298.651Z" transform="translate(-206.327 -189.5)" fill="#e1f3f6"/><path d="M314.384,250.785a8.65,8.65,0,0,0-12.211.661c-.443.495-11.02,12.324-26.129,33.748-.99,1.4-2.078,2.834-3.236,4.257l-1.537,1.884,1.675,1.766c1.783,1.884,3.654,3.722,5.463,5.5q1.473,1.445,2.932,2.9l2.138,2.142,1.942-2.319c1.735-2.068,3.335-4.14,4.758-6.153,14.448-20.489,24.766-32.053,24.87-32.17A8.66,8.66,0,0,0,314.384,250.785Z" transform="translate(-214.5 -215.959)" fill="#e1f3f6"/><rect width="8.742" height="20.46" transform="translate(54.325 75.226) rotate(-48.062)" fill="#f8fdff"/><path d="M288.852,253.856l13.3,5.211s5.654-27.515,1.528-31.641C303.68,227.426,288.852,226.022,288.852,253.856Z" transform="translate(-205.064 -227.316)" fill="#00396a"/><path d="M299.492,232.252c.472.7,10.789,7.587,18.892,5.683,0,0-1.385-12.163-20.3-10.411Z" transform="translate(-200.108 -227.351)" fill="#00396a"/><path d="M308.224,241a5.783,5.783,0,1,1-5.783-5.781A5.783,5.783,0,0,1,308.224,241Z" transform="translate(-200.874 -223.128)" fill="none" stroke="#dddd67" stroke-miterlimit="10" stroke-width="0.868"/><path d="M316.2,241.476a5.03,5.03,0,1,1-5.03-5.03A5.03,5.03,0,0,1,316.2,241.476Z" transform="translate(-195.786 -222.469)" fill="none" stroke="#dddd67" stroke-miterlimit="10" stroke-width="0.755"/><path d="M304.185,239.065s1.921-.75,3.064.393" transform="translate(-196.834 -221.193)" fill="none" stroke="#dddd67" stroke-miterlimit="10" stroke-width="0.868"/></g><g transform="translate(0 63.114)"><g transform="translate(16.996 26.211)"><path d="M196.63,251.48c-.135,0-.27-.006-.407-.017a5.534,5.534,0,0,1-5.117-5.924,33.259,33.259,0,0,1,1.607-7.243,5.535,5.535,0,0,1,10.467,3.605,22.165,22.165,0,0,0-1.034,4.446A5.539,5.539,0,0,1,196.63,251.48Z" transform="translate(-191.09 -234.566)" fill="#0086cf"/></g><g transform="translate(0 33.887)"><path d="M192.557,370.436a45.441,45.441,0,0,0,17.3,4.232c5.978-10.637,23.985-39.441,7.6-63.081l-23.169-12.452S217.456,323.308,192.557,370.436Z" transform="translate(-173.307 -207.587)" fill="#002e4f"/><path d="M205.8,354.638s2.141-4.343,3.813-7.261c-1.255-.152-6.866-.38-9.171-1.266-2.164,4.418-6.878,10.892-10.208,15.332h31.134Z" transform="translate(-174.555 -182.375)" fill="#002e4f"/><path d="M247.663,324.446c-3.873-7.516-32-30.149-34.544-43.15-.224-1.148-.418-2.331-.585-3.541-4.516,2.388-10.379,3.037-15.026,3.275-5.269.266-8.418.593-13.519-1.889.432,8.068-.881,15.857,3.825,24.03,9.342,16.214,40.377,30.1,43.84,35.455,6.826,10.571,9.186,33.517,11.512,47.515,3.654,0,12.318-.158,15.879-1.423C257.842,377.541,259.792,347.992,247.663,324.446Z" transform="translate(-177.905 -219.062)" fill="#00396a"/><path d="M235.438,352.939s-1.01-4.094-1.312-6c-3.562,1.252-5.635-.008-9.3,0,.555,3.473.144,9.963.466,13.772h29.52Z" transform="translate(-155.988 -181.932)" fill="#002e4f"/><path d="M199.849,305.776c4.495-.206,13.94-1.458,17.729-5.246-.776-6.17-3.534-16.1-2.563-24.09,3.292-27.089-9.935-35.209-9.935-35.209s-6.09-4.258-11.026.827c-7.441,7.665-14.7,29.337-13.973,61.378C185.21,306.084,194.458,306.022,199.849,305.776Z" transform="translate(-180.03 -239.562)" fill="#cde5e8"/></g><g transform="translate(20.857 36.384)"><path d="M260.4,313.456a5.769,5.769,0,0,1-1.334-.154c-21.316-4.945-39.368-17.717-52.205-36.935a98.8,98.8,0,0,1-13.079-27.862,5.881,5.881,0,0,1,11.4-2.881,88.848,88.848,0,0,0,11.678,24.543c11.287,16.73,26.379,27.39,44.861,31.679a5.881,5.881,0,0,1-1.325,11.61Z" transform="translate(-193.603 -241.187)" fill="#00a4e2"/></g><path d="M247.808,296.149c-11.745-5.561-21.745-14.378-29.719-26.2a88.2,88.2,0,0,1-11.533-24.216,6.919,6.919,0,0,0-13.417,3.39l.029.128a98.766,98.766,0,0,0,13.194,30.825c10.351,15.5,24.4,27.1,40.617,33.553a1.065,1.065,0,0,0,.384.072,1.024,1.024,0,0,0,.581-.18,1.037,1.037,0,0,0,.455-.859V297.085A1.034,1.034,0,0,0,247.808,296.149Z" transform="translate(-173.108 -205.165)" fill="#e1f3f6"/><g transform="translate(84.635 103.729)"><path d="M242.495,290.354a30.511,30.511,0,0,1-6-.633,1.729,1.729,0,1,1,.678-3.392c5.151,1.03,9.448.655,12.773-1.116a1.729,1.729,0,1,1,1.624,3.052A19.047,19.047,0,0,1,242.495,290.354Z" transform="translate(-235.105 -285.01)" fill="#00a4e2"/></g><g transform="translate(88.256 99.278)"><path d="M241.474,288.038a17.478,17.478,0,0,1-2.533-.18,1.731,1.731,0,0,1,.5-3.425c5.532.81,10.654-2.062,10.706-2.091a1.73,1.73,0,0,1,1.723,3A22.9,22.9,0,0,1,241.474,288.038Z" transform="translate(-237.462 -282.114)" fill="#00a4e2"/></g><g transform="translate(88.288 95.422)"><path d="M239.928,285.981c-.269,0-.542-.009-.824-.028a1.729,1.729,0,1,1,.218-3.452,7.836,7.836,0,0,0,6.259-2.256,1.729,1.729,0,1,1,2.685,2.179A11.043,11.043,0,0,1,239.928,285.981Z" transform="translate(-237.483 -279.605)" fill="#00a4e2"/></g><g transform="translate(83.022 91.783)"><path d="M235.786,284.334a1.729,1.729,0,0,1-.009-3.458,7.271,7.271,0,0,0,5.523-2.9,1.73,1.73,0,0,1,2.843,1.972A10.8,10.8,0,0,1,235.786,284.334Z" transform="translate(-234.056 -277.237)" fill="#00a4e2"/></g><g transform="translate(74.555 50.436)"><path d="M233.089,259.736a1.725,1.725,0,0,1-1.408-.721,17.781,17.781,0,0,1-3.11-6.662,1.73,1.73,0,0,1,3.41-.585A14.767,14.767,0,0,0,234.492,257a1.727,1.727,0,0,1-.4,2.413A1.709,1.709,0,0,1,233.089,259.736Z" transform="translate(-228.546 -250.33)" fill="#00a4e2"/></g><g transform="translate(66.034 56.384)"><path d="M236.426,258.424a1.857,1.857,0,0,1-.329-.029,83.714,83.714,0,0,0-11.367-.736,1.729,1.729,0,1,1,0-3.458,85.377,85.377,0,0,1,12.019.8,1.729,1.729,0,0,1-.323,3.427Z" transform="translate(-223.001 -254.201)" fill="#00a4e2"/></g><g transform="translate(65.086 59.852)"><path d="M224.113,260.815a1.729,1.729,0,0,1-.212-3.445c1.1-.138,10.814-1.322,13.956-.762a1.729,1.729,0,0,1-.6,3.4c-1.982-.349-8.979.3-12.925.788A1.709,1.709,0,0,1,224.113,260.815Z" transform="translate(-222.384 -256.458)" fill="#00a4e2"/></g><g transform="translate(67.335 61.608)"><path d="M225.576,264.112a1.73,1.73,0,0,1-.324-3.428,48.973,48.973,0,0,0,7.336-1.818c.95-.306,2.133-.685,3.9-1.2a1.729,1.729,0,1,1,.962,3.322c-1.713.5-2.821.854-3.8,1.166a51.992,51.992,0,0,1-7.744,1.924A1.721,1.721,0,0,1,225.576,264.112Z" transform="translate(-223.847 -257.601)" fill="#00a4e2"/></g><g transform="translate(71.061 63.175)"><path d="M228,266.314a1.729,1.729,0,0,1-.289-3.433c5.6-.96,6.719-3.05,6.725-3.07a1.73,1.73,0,1,1,3.285,1.083c-.223.668-1.717,4.075-9.426,5.4A1.929,1.929,0,0,1,228,266.314Z" transform="translate(-226.272 -258.62)" fill="#00a4e2"/></g><path d="M232.2,267.2l-1.319-14.1s6.184.45,6.171,6.929C237.044,262.192,236.42,264.6,232.2,267.2Z" transform="translate(-152.74 -198.409)" fill="#00a4e2"/><g transform="translate(16.821 7.207)"><path d="M214.686,237.852a11.054,11.054,0,0,1-7.86,13.514h0a11.057,11.057,0,0,1-13.517-7.859l-1.962-7.421a11.056,11.056,0,0,1,7.86-13.515h0a11.055,11.055,0,0,1,13.517,7.86Z" transform="translate(-190.976 -222.2)" fill="#00a4e2"/></g><g transform="translate(18.952 18.937)"><path d="M212.9,229.833a14.67,14.67,0,0,1-3.853,6.238,16.453,16.453,0,0,1-16.689,2.574l.2.765a11.056,11.056,0,0,0,21.377-5.655Z" transform="translate(-192.363 -229.833)" fill="#00396a"/></g><path d="M194.359,241.081c-4.154-2.666-8.638-12.8-2.078-15.018,4.058-1.372,2.423,11.137,2.423,14.673Z" transform="translate(-175.238 -212.976)" fill="#00396a"/><path d="M190.912,231.433c-5.019-3.636,1.2-13.923,13.6-13.923,7.665,0,7.608,5.872,2.308,9.041-4.4,2.629-11.22,1.09-14.524,5.574Z" transform="translate(-175.125 -217.51)" fill="#00396a"/><path d="M208.321,236.476a102.041,102.041,0,0,1-6.565-11.1c-.854-1.93-2.024-5.222,1.843-2.883,3.238,1.956,4.994,8.856,4.69,12.354Z" transform="translate(-168.83 -215.271)" fill="#00396a"/></g></g><g transform="translate(75.426 171.698)"><path d="M159.429,249.852a74.636,74.636,0,0,0-5.73,5.382l-24.97,52.158L147.316,283.4l19.742-40.811C164.534,245.028,162.007,247.469,159.429,249.852Z" transform="translate(-46.818 -133.65)" fill="#006091"/><path d="M166.854,251.971c1.812-2.477,3.554-5.388,5.615-7.948l-43.7-21.337L87.3,226.838l72.655,33.5C162.338,257.625,164.732,254.874,166.854,251.971Z" transform="translate(-69.053 -144.332)" fill="#006091"/><path d="M147.5,236.77c-2.324,2.906-4.208,6.325-6.439,9.04-2,2.437-4.011,4.87-6.065,7.264l33.03,15.23,11.993-15.659Z" transform="translate(-43.456 -136.773)" fill="#00afe2"/><path d="M129.727,327.318l12.812-26.76L75.426,268.431,86.2,245.92l110.518-65.088,30.158,14.437-44.328,92.6,18.264,8.745-12.4,25.908-18.265-8.742-12.81,26.76Zm49.716-103.851-1.7-.814-59.121,34.61,36.317,17.388Z" transform="translate(-75.426 -166.796)" fill="#0076ad"/><path d="M161.5,261.043,172.666,247.1,163.9,266.533l-15.22,21.259Z" transform="translate(-36.108 -131.228)" fill="#006091"/><path d="M159.123,275.45l43.583-95.535-13.242,15.847-44.328,92.6C146.372,287.167,158.418,276.155,159.123,275.45Z" transform="translate(-38.011 -167.288)" fill="#006091"/><path d="M82.439,250.822l19.694-17.144L210.122,171.7l-17.165,14.036Z" transform="translate(-71.662 -171.698)" fill="#009ee7"/><path d="M154.357,185.734l30.158,14.438,13.241-15.847L171.522,171.7Z" transform="translate(-33.062 -171.698)" fill="#00d2fd"/><path d="M135.7,227.028c-3.71-2.637-6.264-1.483-8.045-1.206a4.907,4.907,0,0,1-3.4-.768,1.729,1.729,0,0,0-1.881,2.9,15.619,15.619,0,0,0,4.228,1.706c-2.878,2.622-5.81,5.787-5.973,5.964a1.73,1.73,0,1,0,2.54,2.348c.034-.035,2.078-2.241,4.36-4.44-2.119,2.651-4.108,5.409-4.47,5.916a1.731,1.731,0,0,0,.4,2.414,1.732,1.732,0,0,0,2.413-.4c1.131-1.58,2.729-3.716,4.255-5.632-.569,1.122-1.288,2.393-2.731,4.715a1.73,1.73,0,0,0,2.938,1.826c.593-.956,1.073-1.746,1.472-2.426a1.73,1.73,0,0,0,3.057,1.586A18.426,18.426,0,0,0,137.6,235.4l.071.052C138.632,230.592,137.461,228.28,135.7,227.028ZM132.233,239.2c.572-1.005.962-1.766,1.329-2.522A18.734,18.734,0,0,1,132.233,239.2Z" transform="translate(-51.414 -143.211)" fill="#00a4e2"/><path d="M102.665,242.565c-5.477-.31-13.423,10.41-5.294,13.326-7.359-.174-9.159,10.23-2.413,13.1-11.814-2.3-10.44,13.011-4.851,18.551a6.365,6.365,0,0,0-7.043,6.955c.578,3.968,2.15,9.469,11.968,12.417s15.821-2.572,20.706-7.777c3.127,6.39,18.585-2.245,16.872-9.889,5.833,2.067,11.06-4.553,11.178-9.843.114-5.162-3.5-9.1-6.94-12.455,2.422-2.217,2.881-6.331,2.244-9.474-1.06-5.22-7.6-5.74-7.6-9.895,0-1.454.278-5.97-.96-7.954-1.973-3.158-5.406-6.284-9.726-4.741C102.665,226.282,102.665,242.565,102.665,242.565Z" transform="translate(-71.357 -139.13)" fill="#00396a"/><path d="M110.417,348.924c-4.991-.87-5.8-.621-10.726-1.824L88.276,361.05h44.281l-25.715-6.918Z" transform="translate(-68.529 -77.557)" fill="#002e4f"/><path d="M159.864,352.09l-2.617-3.438a34.852,34.852,0,0,1-7.488,3.762l6.992,7.8H182.7Z" transform="translate(-35.53 -76.724)" fill="#002e4f"/><path d="M92.653,379.416c4.961,1.216,9.92,2.48,14.942,3.332l36.565-44.984-6.227-17.874-25.6-29.519,7.375,41.834Z" transform="translate(-66.18 -108.004)" fill="#002e4f"/><path d="M136.677,282.643c-10.033-2.662-23.633.707-33.394,4.389,0,0,5.987,23.835,9.916,30.945,11.447,20.7,60.951,72.367,60.951,72.367,2.718-.925,7.957-4.761,10.356-6.313Z" transform="translate(-60.475 -112.664)" fill="#00396a"/><path d="M104.6,310.18c9.687-3.637,29.119-9.772,39.091-7.281,0,0-13.205-31.019-19.2-37.863-4.046-4.615-26.133-17.612-26.133-.621C98.358,287.7,104.6,310.18,104.6,310.18Z" transform="translate(-63.118 -126.491)" fill="#cde5e8"/><g transform="translate(42.04 119.77)"><path d="M110.835,266.343c-.129.045-.258.085-.392.123a5.538,5.538,0,0,1-6.786-3.9,33.286,33.286,0,0,1-.874-7.369,5.535,5.535,0,0,1,11.071-.054,22.171,22.171,0,0,0,.492,4.535A5.535,5.535,0,0,1,110.835,266.343Z" transform="translate(-102.783 -249.637)" fill="#00a4e2"/></g><g transform="translate(42.04 119.77)"><path d="M114.528,260.87a5.679,5.679,0,0,0-.183-1.194,22.171,22.171,0,0,1-.492-4.535,5.535,5.535,0,0,0-11.071.054c0,.069,0,.237.008.469C105.518,258.744,110.013,260.193,114.528,260.87Z" transform="translate(-102.783 -249.637)" fill="#0086cf"/></g><g transform="translate(36.532 100.266)"><path d="M121.864,251.089a10.467,10.467,0,0,1-6.72,13.187h0a10.467,10.467,0,0,1-13.187-6.72l-2.244-6.909a10.466,10.466,0,0,1,6.719-13.187h0a10.464,10.464,0,0,1,13.187,6.72Z" transform="translate(-99.199 -236.945)" fill="#00a4e2"/></g><path d="M183.117,246.311a1.715,1.715,0,0,0-.735-.357c.252-.275.523-.572.838-.913a1.729,1.729,0,0,0-.1-2.443,1.758,1.758,0,0,0-.277-.208,1.72,1.72,0,0,0-2-2.6c.788-.8,1.279-1.349,1.337-1.417a1.729,1.729,0,1,0-2.594-2.287,36.932,36.932,0,0,1-7.668,6.49,9.356,9.356,0,0,0-4.058-3.476,1.722,1.722,0,0,0-2.214.991,1.741,1.741,0,0,0,.973,2.237,5.834,5.834,0,0,1,2.426,2.173,8.212,8.212,0,0,0-.4,1.6c-25.456,34.453-59.208,22.223-60.737,21.643a5.881,5.881,0,0,0-4.234,10.974,61.242,61.242,0,0,0,20.46,3.3,64.37,64.37,0,0,0,7.5-.433c12.706-1.474,31.5-8.793,46.518-28.147a11.182,11.182,0,0,0,1.054-.692,9.6,9.6,0,0,0,.939-.682l-.04-.031a26.612,26.612,0,0,0,3.227-3.289A1.728,1.728,0,0,0,183.117,246.311Z" transform="translate(-62.283 -137.455)" fill="#00a4e2"/><path d="M136.641,257.071l-1.432.309a51.169,51.169,0,0,1-10.755,1.137,47.6,47.6,0,0,1-15.794-2.5,6.918,6.918,0,0,0-8.93,3.959,6.214,6.214,0,0,0,.12,5.291c3.378,5.995,12.653,8.417,24.664,8.417a67.081,67.081,0,0,0,7.621-.435c1.531-.178,3.138-.443,4.776-.787l1.007-.264a41.357,41.357,0,0,1-1.746-8.8A52.858,52.858,0,0,1,136.641,257.071Z" transform="translate(-62.667 -126.692)" fill="#e1f3f6"/><path d="M100.373,257.6c3.633-2.308,4.887-6.632,4.489-10.957,3.186,2.142,5.706.834,7.694-2.844,6.036,8.458,15.237-4.126,2.691-8.682-10.033-3.645-19.867,6.278-17.3,16.255Z" transform="translate(-63.559 -138.076)" fill="#00396a"/></g></g></svg>