<svg xmlns="http://www.w3.org/2000/svg" width="110" height="110" viewBox="0 0 110 110"><g transform="translate(-960 -339)"><circle cx="55" cy="55" r="55" transform="translate(960 339)" fill="rgba(254,178,1,0.07)"/><circle cx="40" cy="40" r="40" transform="translate(975 354)" fill="rgba(254,178,1,0.25)"/><g transform="translate(994 372)"><g transform="translate(0)"><g transform="translate(0 0)"><path d="M42.668,16.368c0-.015-.008-.028-.009-.042a.679.679,0,0,0-.029-.145.736.736,0,0,0-.04-.123.687.687,0,0,0-.071-.107.7.7,0,0,0-.1-.112c-.011-.01-.016-.023-.028-.033l-6.837-5.311V4.99a2.133,2.133,0,0,0-2.133-2.133H25.717L22.631.461a2.11,2.11,0,0,0-2.593,0l-3.086,2.4H9.245A2.133,2.133,0,0,0,7.111,4.99v5.5L.275,15.806c-.012.009-.017.023-.028.033a.7.7,0,0,0-.1.112.681.681,0,0,0-.071.107.7.7,0,0,0-.041.123.674.674,0,0,0-.029.142c0,.014-.009.027-.009.042V40.546a2.108,2.108,0,0,0,.119.672A.7.7,0,0,0,.9,42.284a2.118,2.118,0,0,0,1.232.395h38.4a2.119,2.119,0,0,0,1.235-.4.7.7,0,0,0,.78-1.061,2.11,2.11,0,0,0,.118-.672V16.368ZM20.907,1.583a.682.682,0,0,1,.848,0L23.4,2.856H19.272ZM2.31,41.257l18.6-14.446a.684.684,0,0,1,.848,0l18.6,14.446Zm38.935-1.111L22.63,25.688a2.109,2.109,0,0,0-2.591,0L1.422,40.146v-22.7L13.076,26.5a.711.711,0,0,0,.872-1.124L2.109,16.182l5-3.887V17.79a.711.711,0,0,0,1.422,0V4.99a.711.711,0,0,1,.711-.711H33.423a.711.711,0,0,1,.711.711v12.8a.711.711,0,1,0,1.422,0V12.3l5,3.887L28.7,25.392a.711.711,0,1,0,.873,1.124l11.674-9.065Z" transform="translate(-0.001 -0.015)" fill="#feb201"/><path d="M162.836,95.266h14.222a.711.711,0,1,0,0-1.422H162.836a.711.711,0,1,0,0,1.422Z" transform="translate(-148.614 -86.025)" fill="#feb201"/><path d="M177.77,145.755a.711.711,0,0,0-.711-.711H162.836a.711.711,0,1,0,0,1.422h14.222A.711.711,0,0,0,177.77,145.755Z" transform="translate(-148.614 -132.958)" fill="#feb201"/><path d="M263.814,196.955a.711.711,0,0,0-.711-.711h-6.4a.711.711,0,0,0,0,1.422h6.4A.711.711,0,0,0,263.814,196.955Z" transform="translate(-234.659 -179.891)" fill="#feb201"/></g></g></g></g></svg>