<svg xmlns="http://www.w3.org/2000/svg" width="115" height="115" viewBox="0 0 115 115"><g transform="translate(-950.5 -329.5)"><circle cx="57.5" cy="57.5" r="57.5" transform="translate(950.5 329.5)" fill="rgba(0,206,213,0.07)"/><circle cx="41" cy="41" r="41" transform="translate(966.5 345.5)" fill="rgba(0,206,213,0.15)"/><path d="M41.122,10.994H39.686V8.829H32.471v2.165H29.584V6.813A2.316,2.316,0,0,0,27.271,4.5H16.023A2.316,2.316,0,0,0,13.71,6.813v4.181H10.824V8.829H3.608v2.165H2.172A2.175,2.175,0,0,0,0,13.166V39.128A2.175,2.175,0,0,0,2.172,41.3h38.95a2.175,2.175,0,0,0,2.172-2.172V13.166A2.175,2.175,0,0,0,41.122,10.994Zm-7.208-.722h4.329v.722H33.914ZM15.153,6.813a.871.871,0,0,1,.87-.87H27.271a.871.871,0,0,1,.87.87v4.181H15.153ZM13.71,12.437H36.078v27.42H7.216V12.437H13.71ZM5.051,10.273H9.38v.722H5.051ZM1.443,39.128V13.166a.73.73,0,0,1,.729-.729h3.6v27.42h-3.6A.73.73,0,0,1,1.443,39.128Zm40.408,0a.73.73,0,0,1-.729.729h-3.6V12.437h3.6a.73.73,0,0,1,.729.729Z" transform="translate(985.853 363.735)" fill="#00ced5"/><circle cx="11.5" cy="11.5" r="11.5" transform="translate(1025.5 347.5)" fill="#00b1b7"/><path d="M12.825.485a.439.439,0,0,0-.31-.309A9.209,9.209,0,0,0,10.42,0,6.06,6.06,0,0,0,5.054,3.25H2.408a1.335,1.335,0,0,0-1.089.672L.064,6.431A.721.721,0,0,0,0,6.7a.61.61,0,0,0,.61.609H3.245l-.571.57a.827.827,0,0,0,0,1.149l1.292,1.293a.828.828,0,0,0,1.15,0l.571-.57v2.637A.61.61,0,0,0,6.3,13a.725.725,0,0,0,.272-.064l2.507-1.254a1.331,1.331,0,0,0,.673-1.088V7.942A6.08,6.08,0,0,0,13,2.582,9.013,9.013,0,0,0,12.825.485ZM9.751,4.266A1.016,1.016,0,1,1,10.767,3.25,1.016,1.016,0,0,1,9.751,4.266Z" transform="translate(1029.5 353.5)" fill="#fff"/></g></svg>