<svg xmlns="http://www.w3.org/2000/svg" width="32" height="30.879" viewBox="0 0 32 30.879"><path d="M32,7.176H23.434a3.928,3.928,0,0,0-6-5.028L15.848,3.736,14.26,2.147a3.929,3.929,0,0,0-6,5.028H0v7.86H2.807V31.878H29.754V15.035H32ZM18.23,2.941a2.807,2.807,0,0,1,3.97,3.97l-.265.265H14l2.646-2.646h0ZM9.5,6.911a2.807,2.807,0,1,1,3.97-3.97l1.588,1.588L13.069,6.514a3.458,3.458,0,0,0-.326.387c-.03.041-.06.085-.089.129s-.069.094-.1.146H9.762Zm-8.374,7V8.3h14.6v5.614H1.123Zm14.6,1.123v6.737H3.93V15.035ZM3.93,22.9H15.719v7.86H3.93Zm12.912,7.86V22.9H28.632v7.86Zm11.789-8.982H16.842V15.035H28.632Zm2.246-7.86H16.842V8.3H30.877Z" transform="translate(0 -0.998)" fill="#38596a"/></svg>