<svg xmlns="http://www.w3.org/2000/svg" width="24" height="24.38" viewBox="0 0 24 24.38"><g transform="translate(-0.466 0.001)"><path d="M14.171,4.074a1.179,1.179,0,0,0,1.109.8H18.3a1.179,1.179,0,0,0,1.109-.8,5.556,5.556,0,0,1,1.037-1.806,1.215,1.215,0,0,0,.412-1.155,1.156,1.156,0,0,0-.783-.887,3.193,3.193,0,0,0-3.128.393.39.39,0,0,1-.5,0A3.194,3.194,0,0,0,13.323.227a1.156,1.156,0,0,0-.784.887,1.215,1.215,0,0,0,.412,1.155A6.4,6.4,0,0,1,14.171,4.074Zm-.833-2.806A.345.345,0,0,1,13.579,1,3.372,3.372,0,0,1,14.635.811a2.036,2.036,0,0,1,1.309.443,1.2,1.2,0,0,0,1.511,0A2.394,2.394,0,0,1,19.819,1a.345.345,0,0,1,.241.27.4.4,0,0,1-.139.38,6.307,6.307,0,0,0-1.28,2.161.366.366,0,0,1-.341.253H15.28a.366.366,0,0,1-.341-.253,7.024,7.024,0,0,0-1.462-2.161A.4.4,0,0,1,13.337,1.268Z" transform="translate(-7.154 0)" fill="#00b712"/><path d="M22.627,13.4A.406.406,0,0,0,22.221,13a.4.4,0,0,0-.2.062.393.393,0,0,0-.2-.062H16.938a.406.406,0,0,0,0,.813h4.876v.406h-4.47a.406.406,0,1,0,0,.813H22.19a2.011,2.011,0,0,0,2.728-.119.406.406,0,0,0-.575-.575,1.247,1.247,0,0,1-1.717.006Z" transform="translate(-9.538 -7.717)" fill="#00b712"/><path d="M13.221,26c-2.6,0-5.689,3.3-5.689,6.095a.406.406,0,0,0,.813,0c0-2.32,2.734-5.282,4.876-5.282a.406.406,0,0,0,0-.813Z" transform="translate(-4.195 -15.435)" fill="#00b712"/><path d="M20.4,24.28a12.876,12.876,0,0,0-1.421.082A8.042,8.042,0,0,0,16.8,21.8l-2.926-1.989A3.612,3.612,0,0,0,11.744,19H8.584a3.507,3.507,0,0,0-2.154.74l-2.876,2.1A7.965,7.965,0,0,0,1.3,31.654c.615,1.213,1.643,2.679,3.048,2.774.11.007.221.011.334.011h7.907a3.242,3.242,0,0,0,5.312-.353,8.7,8.7,0,0,0,2.5.353c1.954,0,4.063-.621,4.063-1.625V30.579h-.032a.712.712,0,0,0,.032-.2V25.7C24.466,24.58,21.912,24.28,20.4,24.28Zm3.22,1.418a.284.284,0,0,1-.027.026c-.016.013-.035.026-.056.04s-.059.035-.095.053-.059.03-.093.045-.093.038-.145.058-.083.031-.13.047-.128.039-.2.058c-.054.015-.106.03-.166.045-.077.019-.164.037-.251.054-.065.013-.128.027-.2.04-.1.017-.206.032-.314.046-.074.01-.142.022-.221.03-.128.015-.269.025-.41.035-.072.005-.137.013-.211.017-.222.012-.457.02-.707.02s-.486-.007-.707-.02c-.075,0-.14-.011-.211-.017-.141-.011-.282-.021-.41-.035-.078-.009-.147-.02-.221-.03-.108-.015-.217-.029-.314-.046-.071-.013-.133-.026-.2-.04-.087-.018-.174-.035-.251-.054-.059-.015-.112-.03-.166-.045s-.137-.039-.2-.058-.089-.031-.13-.047-.1-.039-.145-.058-.065-.03-.093-.045-.068-.036-.095-.053a.608.608,0,0,1-.056-.04.242.242,0,0,1-.025-.024l.014-.013a.659.659,0,0,1,.058-.041,1.283,1.283,0,0,1,.122-.069c.026-.013.052-.026.083-.04s.069-.028.106-.043.092-.034.143-.051.072-.025.113-.037c.091-.028.191-.055.3-.081.05-.012.109-.023.164-.035s.134-.028.206-.041.163-.028.25-.041a11.1,11.1,0,0,1,1.66-.117A6.075,6.075,0,0,1,23.623,25.7Zm-6.2,3.343.113.045c.071.028.143.054.218.079l.118.039c.086.027.174.052.264.076l.094.026c.123.031.249.059.378.085l.082.015q.155.029.315.053l.137.019c.091.012.183.023.276.033l.146.014c.1.009.192.015.289.021l.129.008c.139.006.278.01.416.01s.277,0,.416-.01l.132-.008c.1-.006.191-.012.286-.02l.15-.015q.137-.014.272-.033l.141-.019c.1-.015.208-.033.31-.052l.087-.015q.193-.038.376-.084l.1-.027c.088-.024.175-.048.258-.074l.12-.04q.112-.038.217-.079l.112-.045c.073-.031.143-.063.21-.1.021-.011.045-.02.065-.03l0,1.432a4.328,4.328,0,0,1-2.8.829c-.149.005-.293.013-.453.013a7.587,7.587,0,0,1-2.455-.379L17.94,30.8c-.048-.084-.1-.165-.154-.244l-.026-.035c-.051-.071-.1-.141-.16-.207-.017-.02-.035-.038-.053-.058-.05-.056-.1-.112-.154-.165-.028-.027-.057-.052-.086-.078-.047-.043-.093-.086-.143-.126l-.014-.012c0-.159,0-.512,0-.956.021.011.046.02.067.031C17.287,28.979,17.355,29.011,17.427,29.042Zm-5.368,4.584H4.681c-.094,0-.187,0-.28-.009-.8-.054-1.643-.882-2.377-2.33a7.147,7.147,0,0,1,2.021-8.8l2.876-2.1a2.7,2.7,0,0,1,1.663-.575h3.16a2.85,2.85,0,0,1,1.656.659l2.926,1.989a7.19,7.19,0,0,1,1.806,2.032A3.815,3.815,0,0,0,16.779,25l-.028.02a1.325,1.325,0,0,0-.142.118c-.018.017-.035.035-.051.054a.919.919,0,0,0-.088.109.791.791,0,0,0-.053.1.758.758,0,0,0-.041.091.7.7,0,0,0-.036.217V29.4a3.189,3.189,0,0,0-.424-.137l-.057-.015a3.214,3.214,0,0,0-.436-.072l-.05,0c-.083-.007-.167-.013-.252-.013-.045,0-.088,0-.132.007l-.1.005a3.275,3.275,0,0,0-.427.056H14.45l-.032.009a3.106,3.106,0,0,0-.372.108c-.044.015-.088.031-.131.048a3.222,3.222,0,0,0-.352.164c-.043.023-.082.05-.124.075-.079.048-.156.1-.231.154-.044.032-.088.063-.13.1a3.206,3.206,0,0,0-.273.247c-.038.038-.072.079-.108.119-.061.068-.119.139-.174.213-.03.04-.061.078-.089.119a3.217,3.217,0,0,0-.194.327c-.023.044-.043.089-.065.134a3.189,3.189,0,0,0-.124.306c-.011.03-.024.059-.033.09a3.219,3.219,0,0,0-.1.411c0,.018-.01.035-.013.053s0,.046-.006.067c-.013.1-.021.192-.026.29,0,.035,0,.069-.005.1,0,.015,0,.03,0,.045,0,.065.006.128.01.191A3.9,3.9,0,0,0,12.059,33.626Zm3.062,1.219a2.44,2.44,0,0,1-2.436-2.409c0-.032,0-.063,0-.095s0-.089.007-.133.007-.074.012-.111.011-.075.017-.112a2.36,2.36,0,0,1,.074-.311c0-.011.008-.021.012-.032a2.378,2.378,0,0,1,.123-.3l.013-.028a2.506,2.506,0,0,1,.984-1.032l0,0a2.411,2.411,0,0,1,.3-.14l.08-.029a2.278,2.278,0,0,1,.277-.081l.038-.01a2.49,2.49,0,0,1,.353-.044l.067,0a2.431,2.431,0,0,1,.357.013l.02,0a2.39,2.39,0,0,1,.369.075h.005a2.572,2.572,0,0,1,.683.317l.016.011.041.03a2.451,2.451,0,0,1,.194.154l.044.04a2.483,2.483,0,0,1,.177.181l.017.019a2.432,2.432,0,0,1,.33.495c.021.041.041.082.06.124.031.071.058.143.082.216l.006.016c.024.074.043.148.059.223,0,.006,0,.012,0,.017.015.075.027.15.035.226,0,.007,0,.013,0,.02a2.441,2.441,0,0,1,.013.25,2.467,2.467,0,0,1-.014.257c0,.013,0,.024-.006.037-.009.074-.02.147-.036.219,0,.008,0,.016-.006.024-.017.077-.038.154-.063.229l0,.01q-.04.118-.093.233A2.442,2.442,0,0,1,15.121,34.845ZM20.4,33.626a7.97,7.97,0,0,1-2.169-.287.005.005,0,0,0,0,0,3.26,3.26,0,0,0,.091-.406c.005-.033.011-.065.015-.1a3.266,3.266,0,0,0,.031-.425c0-.105-.006-.21-.016-.313,0-.037-.01-.074-.015-.111-.007-.052-.012-.105-.021-.157A11.694,11.694,0,0,0,20.4,32a9.163,9.163,0,0,0,3.252-.512l0,1.3C23.554,33.036,22.321,33.626,20.4,33.626Zm0-4.876a5.048,5.048,0,0,1-3.249-.81c0-.463,0-.933,0-1.325l.033.013c.1.041.2.08.307.116l.017.006c.111.036.227.068.346.1l.119.028c.087.02.175.039.265.056l.13.024c.1.017.2.033.3.048l.095.014c.131.017.262.033.393.046l.1.009c.1.009.2.017.3.024l.126.008.267.013.11,0c.119,0,.235.005.345.005s.226,0,.345-.005l.112,0,.266-.013.128-.008q.147-.01.3-.024l.1-.009c.131-.013.262-.028.393-.046l.1-.014q.15-.021.3-.048l.131-.024c.09-.017.178-.036.265-.056l.119-.028c.121-.03.24-.063.353-.1l.016-.006c.106-.035.206-.074.3-.114l.036-.014,0,1.3C23.554,28.16,22.321,28.75,20.4,28.75Z" transform="translate(0 -11.279)" fill="#00b712"/></g></svg>