<svg xmlns="http://www.w3.org/2000/svg" xmlns:xlink="http://www.w3.org/1999/xlink" width="28" height="28" viewBox="0 0 28 28"><defs><clipPath id="b"><rect width="28" height="28"/></clipPath></defs><g id="a" clip-path="url(#b)"><rect width="28" height="28" fill="rgba(255,255,255,0)"/><g transform="translate(1 1)"><path d="M13,0A13,13,0,1,0,26,13,13.015,13.015,0,0,0,13,0Zm0,25.071A12.071,12.071,0,1,1,25.071,13,12.085,12.085,0,0,1,13,25.071Z" fill="#38596a"/><path d="M14.464,15.929H26.536a.464.464,0,1,0,0-.929H14.464a.464.464,0,1,0,0,.929Z" transform="translate(-7.5 -8.036)" fill="#38596a"/><path d="M26.25,31H10.464a.464.464,0,0,0,0,.929H26.25a.464.464,0,1,0,0-.929Z" transform="translate(-5.357 -16.607)" fill="#38596a"/><path d="M26.25,23H10.464a.464.464,0,0,0,0,.929H26.25a.464.464,0,1,0,0-.929Z" transform="translate(-5.357 -12.321)" fill="#38596a"/><path d="M26.536,39H14.464a.464.464,0,1,0,0,.929H26.536a.464.464,0,1,0,0-.929Z" transform="translate(-7.5 -20.893)" fill="#38596a"/></g></g></svg>