<svg xmlns="http://www.w3.org/2000/svg" width="26" height="28.08" viewBox="0 0 26 28.08"><g transform="translate(-2)"><path d="M18.84,8a8.838,8.838,0,0,0-3.12,17.108V29.84a.52.52,0,0,0,.52.52h.52V31.4a.52.52,0,0,0,.52.52H20.4a.52.52,0,0,0,.52-.52V30.36h.52a.52.52,0,0,0,.52-.52V25.108A8.838,8.838,0,0,0,18.84,8ZM20.4,29.32a.52.52,0,0,0-.52.52v1.04H17.8V29.84a.52.52,0,0,0-.52-.52h-.52v-2.6h4.16v2.6Zm.878-5.074a.52.52,0,0,0-.358.494v.94H16.76v-.94a.52.52,0,0,0-.358-.494,7.8,7.8,0,1,1,4.876,0Z" transform="translate(-3.84 -3.84)" fill="#78909c"/><path d="M26.52,3.12a.52.52,0,0,0,.52-.52V.52A.52.52,0,1,0,26,.52V2.6A.52.52,0,0,0,26.52,3.12Z" transform="translate(-11.52)" fill="#78909c"/><path d="M48.6,24H46.52a.52.52,0,0,0,0,1.04H48.6a.52.52,0,1,0,0-1.04Z" transform="translate(-21.12 -11.52)" fill="#78909c"/><path d="M4.6,24H2.52a.52.52,0,0,0,0,1.04H4.6A.52.52,0,0,0,4.6,24Z" transform="translate(0 -11.52)" fill="#78909c"/><path d="M41.766,7.181,40.3,8.652a.52.52,0,1,0,.735.735L42.5,7.917a.52.52,0,1,0-.735-.735Z" transform="translate(-18.309 -3.374)" fill="#78909c"/><path d="M10.652,38.3,9.181,39.766a.52.52,0,1,0,.735.735l1.471-1.471a.52.52,0,0,0-.735-.735Z" transform="translate(-3.374 -18.309)" fill="#78909c"/><path d="M41.031,38.3a.52.52,0,1,0-.735.735L41.766,40.5a.52.52,0,0,0,.735-.735Z" transform="translate(-18.309 -18.309)" fill="#78909c"/><path d="M10.652,9.387a.52.52,0,0,0,.735-.735L9.917,7.181a.52.52,0,0,0-.735.735Z" transform="translate(-3.374 -3.374)" fill="#78909c"/><path d="M21.24,13A6.247,6.247,0,0,0,15,19.24a.52.52,0,0,0,1.04,0,5.206,5.206,0,0,1,5.2-5.2.52.52,0,1,0,0-1.04Z" transform="translate(-6.24 -6.24)" fill="#78909c"/></g></svg>