<svg xmlns="http://www.w3.org/2000/svg" width="45.882" height="39" viewBox="0 0 45.882 39"><path d="M43.581,11.382H42.059V9.088H34.412v2.294H31.353V6.952A2.454,2.454,0,0,0,28.9,4.5H16.981a2.454,2.454,0,0,0-2.452,2.452v4.431H11.471V9.088H3.824v2.294H2.3a2.305,2.305,0,0,0-2.3,2.3V41.2a2.305,2.305,0,0,0,2.3,2.3H43.581a2.305,2.305,0,0,0,2.3-2.3V13.684A2.305,2.305,0,0,0,43.581,11.382Zm-7.639-.765h4.588v.765H35.941ZM16.059,6.952a.923.923,0,0,1,.922-.922H28.9a.923.923,0,0,1,.922.922v4.431H16.059Zm-1.529,5.96H38.235V41.971H7.647V12.912h6.882ZM5.353,10.618H9.941v.765H5.353ZM1.529,41.2V13.684a.773.773,0,0,1,.772-.772H6.118V41.971H2.3A.773.773,0,0,1,1.529,41.2Zm42.824,0a.773.773,0,0,1-.772.772H39.765V12.912h3.816a.773.773,0,0,1,.772.772Z" transform="translate(0 -4.5)" fill="#d0dce2"/></svg>