<svg xmlns="http://www.w3.org/2000/svg" width="15.751" height="16" viewBox="0 0 15.751 16"><g transform="translate(-0.466 0.001)"><path d="M13.6,2.673a.774.774,0,0,0,.728.525h1.982a.774.774,0,0,0,.728-.525,3.647,3.647,0,0,1,.681-1.185.8.8,0,0,0,.27-.758.759.759,0,0,0-.514-.582,2.1,2.1,0,0,0-2.053.258.256.256,0,0,1-.325,0A2.1,2.1,0,0,0,13.046.148a.759.759,0,0,0-.514.582.8.8,0,0,0,.27.758A4.2,4.2,0,0,1,13.6,2.673ZM13.056.832a.227.227,0,0,1,.158-.177,2.213,2.213,0,0,1,.693-.123,1.336,1.336,0,0,1,.859.291.789.789,0,0,0,.991,0A1.571,1.571,0,0,1,17.309.655a.227.227,0,0,1,.158.177.26.26,0,0,1-.091.249,4.139,4.139,0,0,0-.84,1.418.24.24,0,0,1-.224.166H14.331a.24.24,0,0,1-.224-.166,4.61,4.61,0,0,0-.96-1.418A.259.259,0,0,1,13.056.832Z" transform="translate(-8.837 0)" fill="#00b712"/><path d="M20.532,13.265A.267.267,0,0,0,20.265,13a.261.261,0,0,0-.133.041A.258.258,0,0,0,20,13H16.8a.267.267,0,0,0,0,.533H20V13.8H17.065a.267.267,0,1,0,0,.533h3.18a1.32,1.32,0,0,0,1.791-.078.267.267,0,0,0-.377-.377.818.818,0,0,1-1.127,0Z" transform="translate(-11.781 -9.533)" fill="#00b712"/><path d="M11.265,26c-1.71,0-3.733,2.168-3.733,4a.267.267,0,0,0,.533,0c0-1.523,1.794-3.467,3.2-3.467a.267.267,0,0,0,0-.533Z" transform="translate(-5.181 -19.066)" fill="#00b712"/><path d="M13.551,22.465a8.45,8.45,0,0,0-.933.054,5.278,5.278,0,0,0-1.431-1.681L9.267,19.532A2.37,2.37,0,0,0,7.868,19H5.794a2.3,2.3,0,0,0-1.413.486L2.493,20.859A5.228,5.228,0,0,0,1.013,27.3c.4.8,1.078,1.758,2,1.82.072,0,.145.007.219.007H8.421a2.127,2.127,0,0,0,3.486-.232,5.712,5.712,0,0,0,1.643.232c1.282,0,2.667-.408,2.667-1.067V26.6H16.2a.468.468,0,0,0,.021-.133V23.4C16.217,22.661,14.541,22.465,13.551,22.465Zm2.113.931a.186.186,0,0,1-.018.017l-.037.026c-.018.011-.039.023-.062.035l-.061.029c-.028.013-.061.025-.095.038l-.086.031c-.039.013-.084.026-.129.038l-.109.03c-.051.013-.108.024-.165.035s-.084.018-.13.026c-.064.011-.135.021-.206.03-.048.007-.093.014-.145.02-.084.01-.177.016-.269.023-.047,0-.09.008-.139.011-.146.008-.3.013-.464.013s-.319,0-.464-.013c-.049,0-.092-.007-.139-.011-.092-.007-.185-.014-.269-.023-.051-.006-.1-.013-.145-.02-.071-.01-.142-.019-.206-.03-.046-.008-.087-.017-.13-.026s-.114-.023-.165-.035l-.109-.03c-.045-.013-.09-.025-.129-.038l-.086-.031c-.034-.013-.067-.025-.095-.038l-.061-.029c-.023-.012-.045-.024-.062-.035a.4.4,0,0,1-.037-.026.159.159,0,0,1-.017-.016l.009-.008a.432.432,0,0,1,.038-.027.842.842,0,0,1,.08-.045l.055-.026.07-.028.094-.034.074-.024c.06-.018.125-.036.2-.053.033-.008.071-.015.107-.023L12.3,23.1l.164-.027A7.283,7.283,0,0,1,13.549,23,3.987,3.987,0,0,1,15.664,23.4ZM11.6,25.589l.074.03c.046.018.094.035.143.052l.078.026c.056.018.114.034.173.05l.062.017c.081.02.163.039.248.055l.054.01q.1.019.207.035l.09.012.181.022.1.009c.063.006.126.01.19.014l.085.005c.091,0,.182.007.273.007s.182,0,.273-.007l.086-.005.188-.013.1-.01q.09-.009.179-.021l.093-.013c.069-.01.137-.022.2-.034l.057-.01q.126-.025.247-.055l.066-.018c.058-.015.115-.031.17-.049l.079-.026q.073-.025.142-.052l.074-.03c.048-.02.094-.042.138-.063l.043-.02,0,.94a2.84,2.84,0,0,1-1.839.544c-.1,0-.192.008-.3.008a4.979,4.979,0,0,1-1.611-.249l-.005-.008c-.031-.055-.065-.109-.1-.16l-.017-.023c-.033-.047-.068-.092-.1-.136l-.035-.038c-.033-.037-.066-.074-.1-.108-.018-.018-.038-.034-.056-.051s-.061-.057-.094-.083l-.009-.008c0-.1,0-.336,0-.627l.044.02C11.505,25.548,11.55,25.569,11.6,25.589ZM8.074,28.6H3.232c-.062,0-.123,0-.183-.006-.524-.035-1.078-.579-1.56-1.529a4.691,4.691,0,0,1,1.326-5.778L4.7,19.909a1.775,1.775,0,0,1,1.091-.378H7.868a1.87,1.87,0,0,1,1.087.433l1.921,1.305A4.718,4.718,0,0,1,12.06,22.6a2.5,2.5,0,0,0-.888.331l-.018.013a.87.87,0,0,0-.093.078c-.012.011-.023.023-.034.035a.6.6,0,0,0-.058.072.519.519,0,0,0-.035.065.5.5,0,0,0-.027.059.457.457,0,0,0-.024.142v2.424a2.093,2.093,0,0,0-.278-.09l-.038-.01a2.11,2.11,0,0,0-.286-.047l-.033,0c-.055,0-.11-.008-.165-.008-.029,0-.058,0-.087,0l-.068,0a2.15,2.15,0,0,0-.28.037H9.644l-.021.006a2.038,2.038,0,0,0-.244.071l-.086.031a2.114,2.114,0,0,0-.231.108c-.028.015-.054.033-.081.049-.052.032-.1.065-.151.1-.029.021-.058.042-.086.064a2.1,2.1,0,0,0-.179.162c-.025.025-.047.052-.071.078-.04.045-.078.091-.114.139-.019.026-.04.051-.058.078a2.111,2.111,0,0,0-.127.214c-.015.029-.029.058-.042.088a2.092,2.092,0,0,0-.081.2c-.007.02-.015.039-.022.059a2.113,2.113,0,0,0-.063.27c0,.012-.006.023-.008.035s0,.03,0,.044c-.009.063-.014.126-.017.19,0,.023,0,.046,0,.069s0,.019,0,.029c0,.042,0,.084.006.125A2.556,2.556,0,0,0,8.074,28.6Zm2.01.8a1.6,1.6,0,0,1-1.6-1.581c0-.021,0-.041,0-.062s0-.058,0-.087,0-.049.008-.073.007-.049.011-.074a1.549,1.549,0,0,1,.049-.2c0-.007.005-.014.008-.021a1.561,1.561,0,0,1,.081-.2l.009-.018A1.645,1.645,0,0,1,9.3,26.4l0,0a1.582,1.582,0,0,1,.195-.092l.052-.019a1.494,1.494,0,0,1,.182-.053l.025-.006a1.634,1.634,0,0,1,.231-.029l.044,0a1.6,1.6,0,0,1,.234.009l.013,0a1.568,1.568,0,0,1,.242.049h0a1.688,1.688,0,0,1,.448.208l.011.007.027.02a1.607,1.607,0,0,1,.127.1l.029.026a1.629,1.629,0,0,1,.116.119l.011.012a1.6,1.6,0,0,1,.217.325c.014.027.027.054.039.081.02.047.038.094.054.142l0,.01c.015.048.028.1.039.147l0,.011c.01.049.018.1.023.149,0,0,0,.009,0,.013a1.6,1.6,0,0,1,.009.164,1.619,1.619,0,0,1-.009.169c0,.008,0,.016,0,.024-.006.048-.013.1-.023.143,0,.005,0,.01,0,.016-.011.051-.025.1-.042.15l0,.006q-.026.078-.061.153A1.6,1.6,0,0,1,10.084,29.4Zm3.467-.8a5.231,5.231,0,0,1-1.424-.188,0,0,0,0,0,0,0,2.139,2.139,0,0,0,.06-.266c0-.022.007-.043.01-.065a2.143,2.143,0,0,0,.021-.279c0-.069,0-.138-.01-.206,0-.025-.007-.048-.01-.073s-.008-.069-.014-.1a7.674,7.674,0,0,0,1.367.114,6.013,6.013,0,0,0,2.134-.336l0,.85A3.153,3.153,0,0,1,13.551,28.6Zm0-3.2a3.313,3.313,0,0,1-2.132-.532c0-.3,0-.613,0-.87l.022.008c.064.027.13.053.2.076l.011,0c.073.023.149.045.227.064l.078.018c.057.013.115.026.174.037l.086.016c.065.011.13.022.2.031l.062.009c.086.011.172.022.258.03l.064.006.2.015.083.005.175.008.072,0c.078,0,.154,0,.226,0s.148,0,.226,0l.073,0,.174-.008.084-.005.2-.016.063-.006c.086-.009.172-.018.258-.03l.063-.009q.1-.014.2-.031l.086-.016c.059-.011.117-.024.174-.037l.078-.018c.08-.02.158-.041.231-.065l.011,0c.07-.023.135-.048.2-.075L15.685,24l0,.85A3.15,3.15,0,0,1,13.551,25.4Z" transform="translate(0 -13.933)" fill="#00b712"/></g></svg>