<svg xmlns="http://www.w3.org/2000/svg" xmlns:xlink="http://www.w3.org/1999/xlink" width="28" height="28" viewBox="0 0 28 28"><defs><clipPath id="b"><rect width="28" height="28"/></clipPath></defs><g id="a" clip-path="url(#b)"><rect width="28" height="28" fill="rgba(255,255,255,0)"/><path d="M24.7,8.4h-.862V7.1H19.5V8.4H17.767V5.889A1.391,1.391,0,0,0,16.377,4.5H9.623A1.391,1.391,0,0,0,8.233,5.889V8.4H6.5V7.1H2.167V8.4H1.3A1.306,1.306,0,0,0,0,9.7V25.3a1.306,1.306,0,0,0,1.3,1.3H24.7A1.306,1.306,0,0,0,26,25.3V9.7A1.306,1.306,0,0,0,24.7,8.4Zm-4.329-.433h2.6V8.4h-2.6ZM9.1,5.889a.523.523,0,0,1,.523-.523h6.755a.523.523,0,0,1,.523.523V8.4H9.1ZM8.233,9.267H21.667V25.733H4.333V9.267h3.9Zm-5.2-1.3h2.6V8.4h-2.6ZM.867,25.3V9.7A.438.438,0,0,1,1.3,9.267H3.467V25.733H1.3A.438.438,0,0,1,.867,25.3Zm24.267,0a.438.438,0,0,1-.438.438H22.533V9.267H24.7a.438.438,0,0,1,.438.438Z" transform="translate(1 -1.5)" fill="#38596a"/></g></svg>