<svg xmlns="http://www.w3.org/2000/svg" width="170" height="170" viewBox="0 0 170 170"><g transform="translate(-950 -329)"><circle cx="85" cy="85" r="85" transform="translate(950 329)" fill="rgba(254,178,1,0.09)"/><circle cx="60" cy="60" r="60" transform="translate(975 354)" fill="rgba(254,178,1,0.19)"/><g transform="translate(1003.512 384)"><path d="M10.092,50.109h13.5V48.032h-13.5a1.038,1.038,0,0,1-1.039-1.039V14.8H48.521v8.309H50.6V9.6a3.116,3.116,0,0,0-3.116-3.116H10.092A3.116,3.116,0,0,0,6.977,9.6v37.39a3.116,3.116,0,0,0,3.116,3.116Zm0-41.544h37.39A1.039,1.039,0,0,1,48.521,9.6V12.72H9.054V9.6a1.038,1.038,0,0,1,1.039-1.039Zm0,0" transform="translate(-5.646 -5.646)" fill="#feb201"/><path d="M38.977,30.488h2.077v2.077H38.977Zm0,0" transform="translate(-33.492 -26.53)" fill="#feb201"/><path d="M70.977,30.488h2.077v2.077H70.977Zm0,0" transform="translate(-61.337 -26.53)" fill="#feb201"/><path d="M102.977,30.488h2.077v2.077h-2.077Zm0,0" transform="translate(-89.183 -26.53)" fill="#feb201"/><path d="M150.977,110.488h2.077v2.077h-2.077Zm0,0" transform="translate(-130.951 -96.144)" fill="#feb201"/><path d="M182.977,110.488h2.077v2.077h-2.077Zm0,0" transform="translate(-158.797 -96.144)" fill="#feb201"/><path d="M214.977,110.488h2.077v2.077h-2.077Zm0,0" transform="translate(-186.643 -96.144)" fill="#feb201"/><path d="M118.977,110.488h2.077v2.077h-2.077Zm0,0" transform="translate(-103.106 -96.144)" fill="#feb201"/><path d="M191.483,150.488h-37.39a3.116,3.116,0,0,0-3.116,3.116v37.39a3.116,3.116,0,0,0,3.116,3.116h37.39a3.116,3.116,0,0,0,3.116-3.116V153.6A3.116,3.116,0,0,0,191.483,150.488Zm-37.39,2.077h37.39a1.039,1.039,0,0,1,1.039,1.039v3.116H153.054V153.6A1.038,1.038,0,0,1,154.093,152.565Zm37.39,39.467h-37.39a1.038,1.038,0,0,1-1.039-1.039V158.8h39.467v32.2A1.039,1.039,0,0,1,191.483,192.032Zm0,0" transform="translate(-130.951 -130.951)" fill="#feb201"/><path d="M182.977,174.488h2.077v2.077h-2.077Zm0,0" transform="translate(-158.797 -151.835)" fill="#feb201"/><path d="M214.977,174.488h2.077v2.077h-2.077Zm0,0" transform="translate(-186.643 -151.835)" fill="#feb201"/><path d="M246.977,174.488h2.077v2.077h-2.077Zm0,0" transform="translate(-214.488 -151.835)" fill="#feb201"/><path d="M277.209,294.488a6.232,6.232,0,1,0,6.232,6.232A6.232,6.232,0,0,0,277.209,294.488Zm0,10.386a4.154,4.154,0,1,1,4.154-4.154A4.154,4.154,0,0,1,277.209,304.874Zm0,0" transform="translate(-235.372 -256.256)" fill="#feb201"/><path d="M247.072,255.856l-1.842-.369a10.33,10.33,0,0,0-.415-1.009l1.039-1.558a1.039,1.039,0,0,0-.13-1.31l-2.939-2.941a1.038,1.038,0,0,0-1.311-.13l-1.558,1.039a10.321,10.321,0,0,0-1.008-.415l-.372-1.844a1.039,1.039,0,0,0-1.018-.831h-4.154a1.039,1.039,0,0,0-1.018.831l-.369,1.843a10.374,10.374,0,0,0-1.008.415l-1.558-1.039a1.038,1.038,0,0,0-1.311.13l-2.941,2.939a1.039,1.039,0,0,0-.13,1.31l1.039,1.558a10.458,10.458,0,0,0-.415,1.009l-1.843.372a1.038,1.038,0,0,0-.831,1.018v4.154a1.038,1.038,0,0,0,.831,1.018l1.842.369a10.454,10.454,0,0,0,.415,1.009l-1.039,1.558a1.039,1.039,0,0,0,.13,1.31l2.939,2.941a1.038,1.038,0,0,0,1.311.13l1.558-1.039a10.376,10.376,0,0,0,1.008.415l.372,1.844a1.039,1.039,0,0,0,1.018.831h4.154a1.039,1.039,0,0,0,1.018-.831l.369-1.842a10.379,10.379,0,0,0,1.008-.416l1.558,1.039a1.038,1.038,0,0,0,1.311-.13l2.941-2.939a1.039,1.039,0,0,0,.13-1.31l-1.039-1.558a10.462,10.462,0,0,0,.415-1.009l1.843-.372a1.039,1.039,0,0,0,.831-1.018v-4.154A1.039,1.039,0,0,0,247.072,255.856Zm-1.246,4.321-1.608.322a1.039,1.039,0,0,0-.795.733,8.328,8.328,0,0,1-.727,1.755,1.038,1.038,0,0,0,.043,1.081l.908,1.36-1.734,1.735-1.361-.908a1.037,1.037,0,0,0-1.081-.043,8.323,8.323,0,0,1-1.754.727,1.04,1.04,0,0,0-.733.795l-.318,1.6h-2.451l-.322-1.608a1.039,1.039,0,0,0-.733-.795,8.289,8.289,0,0,1-1.754-.727,1.04,1.04,0,0,0-1.081.043l-1.361.908-1.734-1.734.908-1.361a1.038,1.038,0,0,0,.043-1.081,8.288,8.288,0,0,1-.727-1.754,1.039,1.039,0,0,0-.794-.733l-1.6-.317v-2.451l1.608-.322a1.039,1.039,0,0,0,.795-.733,8.313,8.313,0,0,1,.727-1.754,1.038,1.038,0,0,0-.043-1.081l-.908-1.361,1.734-1.734,1.361.908a1.04,1.04,0,0,0,1.081.043,8.3,8.3,0,0,1,1.754-.727,1.039,1.039,0,0,0,.733-.795l.318-1.6h2.451l.322,1.608a1.039,1.039,0,0,0,.733.795,8.289,8.289,0,0,1,1.754.727,1.04,1.04,0,0,0,1.081-.043l1.361-.908,1.734,1.734-.908,1.361a1.038,1.038,0,0,0-.043,1.081,8.288,8.288,0,0,1,.727,1.754,1.039,1.039,0,0,0,.794.733l1.6.317Zm0,0" transform="translate(-193.603 -214.487)" fill="#feb201"/><path d="M29.419,354.754l-1.837.97a32.164,32.164,0,0,0,13.457,13.457l.97-1.836a30.086,30.086,0,0,1-12.59-12.591Zm0,0" transform="translate(-23.576 -308.698)" fill="#feb201"/><path d="M367.829,41.525l1.837-.97A32.164,32.164,0,0,0,356.209,27.1l-.97,1.836a30.082,30.082,0,0,1,12.59,12.591Zm0,0" transform="translate(-308.695 -23.58)" fill="#feb201"/><path d="M.488,372.6l1.8-1.038,1.039,1.8-1.8,1.039Zm0,0" transform="translate(0 -323.324)" fill="#feb201"/><path d="M27.348,411.39l1.591-1.335,1.335,1.592-1.591,1.335Zm0,0" transform="translate(-23.372 -356.819)" fill="#feb201"/><path d="M60.867,445.174l1.335-1.591,1.591,1.335-1.335,1.591Zm0,0" transform="translate(-52.54 -385.994)" fill="#feb201"/><path d="M100.051,472.92l1.039-1.8,1.8,1.038-1.039,1.8Zm0,0" transform="translate(-86.637 -409.958)" fill="#feb201"/><path d="M471.6,100.594l1.8-1.039,1.038,1.8-1.8,1.039Zm0,0" transform="translate(-409.951 -86.63)" fill="#feb201"/><path d="M444.066,61.718l1.591-1.335,1.335,1.591L445.4,63.309Zm0,0" transform="translate(-385.99 -52.544)" fill="#feb201"/><path d="M410.547,28.443l1.335-1.591,1.591,1.335-1.335,1.592Zm0,0" transform="translate(-356.823 -23.366)" fill="#feb201"/><path d="M372.047,1.8,373.086,0l1.8,1.039-1.038,1.8Zm0,0" transform="translate(-323.321)" fill="#feb201"/><path d="M54.977,158.488h8.309v2.077H54.977Zm0,0" transform="translate(-47.414 -137.912)" fill="#feb201"/><path d="M54.977,190.488h8.309v2.077H54.977Zm0,0" transform="translate(-47.414 -165.758)" fill="#feb201"/><path d="M54.977,222.488h8.309v2.077H54.977Zm0,0" transform="translate(-47.414 -193.603)" fill="#feb201"/><path d="M54.977,254.488h8.309v2.077H54.977Zm0,0" transform="translate(-47.414 -221.449)" fill="#feb201"/><path d="M54.977,286.488h8.309v2.077H54.977Zm0,0" transform="translate(-47.414 -249.295)" fill="#feb201"/></g></g></svg>