<svg xmlns="http://www.w3.org/2000/svg" width="32" height="37.138" viewBox="0 0 32 37.138"><path d="M35.934,4.007a4.015,4.015,0,0,0-3.918-4V0H7.911A3.981,3.981,0,0,0,3.934,3.977V37.138l12.408-8.272L28.75,37.138V16.327h7.184ZM27.444,34.7l-11.1-7.4L5.24,34.7V3.977A2.674,2.674,0,0,1,7.911,1.306H28.82a4.567,4.567,0,0,0-1.283,2.358v0c-.029.145-.052.293-.067.442a4.522,4.522,0,0,0-.024.463V34.7ZM34.628,15.02H28.75V4.571a3.255,3.255,0,0,1,2.5-3.165c.024-.006.044-.016.068-.021a3.2,3.2,0,0,1,.492-.058c.054,0,.106-.016.161-.016a2.707,2.707,0,0,1,2.657,2.7V15.02Z" transform="translate(-3.934)" fill="#38596a"/></svg>