<svg xmlns="http://www.w3.org/2000/svg" xmlns:xlink="http://www.w3.org/1999/xlink" width="28" height="28" viewBox="0 0 28 28"><defs><clipPath id="b"><rect width="28" height="28"/></clipPath></defs><g id="a" clip-path="url(#b)"><rect width="28" height="28" fill="rgba(255,255,255,0)"/><g transform="translate(0.5 1)"><path d="M25.467,16.649a.473.473,0,0,0-.05-.2L22.5,10.908V3.847L18.975.155,18.82,0H4.5V10.908L1.584,16.449v0a.471.471,0,0,0-.05.2.523.523,0,0,0-.033.164v6.918a1.555,1.555,0,0,0,1.554,1.554H23.946A1.556,1.556,0,0,0,25.5,23.732V16.813A.514.514,0,0,0,25.467,16.649Zm-1.1-.363H22.5V12.749ZM19.071,1.463l1.965,1.965H19.071ZM5.357.857H18.214V3.57a.716.716,0,0,0,.716.716h2.713v12H18.851a1.064,1.064,0,0,0-.753.312h0l-.006.007a1.08,1.08,0,0,0-.157.21c-.012.021-.024.042-.035.064a1.052,1.052,0,0,0-.115.471v1.726a.209.209,0,0,1-.208.208H9.423a.209.209,0,0,1-.208-.208V17.351a1.052,1.052,0,0,0-.115-.471c-.011-.022-.022-.043-.035-.064s-.02-.041-.033-.06a1.055,1.055,0,0,0-.125-.151s0-.005-.005-.007h0a1.062,1.062,0,0,0-.753-.312H5.357V.857ZM4.5,12.749v3.537H2.638ZM24.643,23.732a.7.7,0,0,1-.7.7H3.054a.7.7,0,0,1-.7-.7V17.143H8.149a.2.2,0,0,1,.2.153.2.2,0,0,1,.011.055v1.726a1.066,1.066,0,0,0,1.065,1.065h8.154a1.066,1.066,0,0,0,1.065-1.065V17.351a.2.2,0,0,1,.011-.055.205.205,0,0,1,.049-.09.21.21,0,0,1,.149-.063h5.792Z" fill="#38596a"/><path d="M14.929,12.857h7.714a.429.429,0,0,0,0-.857H14.929a.429.429,0,0,0,0,.857Z" transform="translate(-7.429 -6.857)" fill="#38596a"/><path d="M14.929,32.857h7.714a.429.429,0,1,0,0-.857H14.929a.429.429,0,1,0,0,.857Z" transform="translate(-7.429 -18.286)" fill="#38596a"/><path d="M35.5,26.429a.429.429,0,0,0,.429.429h3a.429.429,0,0,0,0-.857h-3A.429.429,0,0,0,35.5,26.429Z" transform="translate(-19.429 -14.857)" fill="#38596a"/><path d="M14.929,19.857H17.5a.429.429,0,1,0,0-.857H14.929a.429.429,0,1,0,0,.857Z" transform="translate(-7.429 -10.857)" fill="#38596a"/><path d="M30.5,19.429a.429.429,0,0,0,.429.429h3a.429.429,0,0,0,0-.857h-3A.429.429,0,0,0,30.5,19.429Z" transform="translate(-16.571 -10.857)" fill="#38596a"/><path d="M26.233,19.74a.435.435,0,1,0-.3.124A.451.451,0,0,0,26.233,19.74Z" transform="translate(-13.714 -10.864)" fill="#38596a"/><path d="M19.5,26.429a.429.429,0,0,0,.429.429h4.714a.429.429,0,1,0,0-.857H19.929A.429.429,0,0,0,19.5,26.429Z" transform="translate(-10.286 -14.857)" fill="#38596a"/><path d="M14.929,26.864a.424.424,0,1,0-.3-.124A.451.451,0,0,0,14.929,26.864Z" transform="translate(-7.429 -14.864)" fill="#38596a"/><path d="M42.929,19.864a.424.424,0,1,0-.3-.124A.451.451,0,0,0,42.929,19.864Z" transform="translate(-23.429 -10.864)" fill="#38596a"/><path d="M37.624,32.131a.429.429,0,1,0,.609,0A.451.451,0,0,0,37.624,32.131Z" transform="translate(-20.571 -18.293)" fill="#38596a"/><path d="M42.624,32.131a.429.429,0,1,0,.609,0A.451.451,0,0,0,42.624,32.131Z" transform="translate(-23.429 -18.293)" fill="#38596a"/></g></g></svg>