<svg xmlns="http://www.w3.org/2000/svg" width="32" height="34.909" viewBox="0 0 32 34.909"><path d="M28.225,14.545,34.4,5.566a.582.582,0,0,0-.479-.911H16.464V2.327a.581.581,0,0,0-.582-.582H3.664V.582A.582.582,0,0,0,2.5.582V34.327a.582.582,0,0,0,1.164,0V19.782h6.415a2.879,2.879,0,0,0-.6,1.745,2.912,2.912,0,0,0,2.909,2.909H33.918a.582.582,0,0,0,.479-.911ZM3.664,2.909H15.3V18.618H3.664Zm8.727,20.364a1.745,1.745,0,1,1,0-3.491h3.491a.581.581,0,0,0,.582-.582V5.818H32.812l-5.773,8.4a.583.583,0,0,0,0,.659l5.773,8.4Z" transform="translate(-2.5)" fill="#38596a"/></svg>