<svg xmlns="http://www.w3.org/2000/svg" width="33.999" height="25.408" viewBox="0 0 33.999 25.408"><g transform="translate(-745.29 -269.117)"><g transform="translate(-237 -235)" fill="rgba(0,112,224,0)"><path d="M 1007.107177734375 529.024658203125 L 1007.10009765625 529.024658203125 L 998.877197265625 529.024658203125 L 998.6918334960938 528.060302734375 C 998.7088623046875 528.053466796875 1000.448181152344 527.3472900390625 1001.893188476563 526.0188598632813 C 1003.357604980469 524.6720581054688 1004.576416015625 522.64208984375 1004.588562011719 522.6217651367188 L 1004.863342285156 522.1612548828125 L 1005.303527832031 522.467529296875 L 1005.469177246094 522.582763671875 L 1005.91943359375 519.9457397460938 L 1003.390686035156 521.0911865234375 L 1003.63623046875 521.2877197265625 L 1004.006774902344 521.584228515625 L 1003.730041503906 521.9697265625 C 1003.673706054688 522.048095703125 1002.325805664063 523.9088745117188 1000.124816894531 525.5167846679688 C 997.9436645507813 527.1102905273438 995.0014038085938 528.3995361328125 994.877197265625 528.45361328125 L 994.8538818359375 528.4637451171875 L 994.8297119140625 528.4714965820313 C 994.7637939453125 528.4925537109375 993.1943969726563 528.9876098632813 991.402587890625 528.9876098632813 C 990.8851928710938 528.9876098632813 990.394775390625 528.9454956054688 989.945068359375 528.8624267578125 C 987.6483764648438 528.4381103515625 985.6571044921875 526.8273315429688 985.573486328125 526.7589721679688 C 985.524169921875 526.7179565429688 984.4415283203125 525.8056640625 983.6392211914063 524.220947265625 C 982.8934326171875 522.747802734375 982.2586059570313 520.395263671875 983.4698486328125 517.5538330078125 C 985.4251098632813 512.9674072265625 990.1258544921875 512.4419555664063 991.5869140625 512.3920288085938 C 991.691162109375 511.6950378417969 991.9785766601563 510.3101501464844 992.7316284179688 508.8928833007813 C 993.7144165039063 507.0431213378906 995.6968994140625 504.8014831542969 999.560302734375 504.626708984375 C 999.7015991210938 504.6203002929688 999.8436279296875 504.6170654296875 999.982421875 504.6170654296875 C 1002.897888183594 504.6170654296875 1005.271057128906 506.0469970703125 1006.845397949219 508.7522888183594 C 1007.737915039063 510.2859802246094 1008.129943847656 511.8047790527344 1008.270324707031 512.4691772460938 C 1008.948364257813 512.6253662109375 1010.516235351563 513.0624389648438 1012.052429199219 514.033935546875 C 1014.74951171875 515.7396240234375 1016.028259277344 518.2642211914063 1015.750549316406 521.3348388671875 C 1015.401062011719 525.197509765625 1013.057312011719 527.0872802734375 1011.152648925781 527.992431640625 C 1009.122131347656 528.9573974609375 1007.195251464844 529.0221557617188 1007.114196777344 529.0244750976563 L 1007.107177734375 529.024658203125 Z" stroke="none"/><path d="M 999.9825439453125 505.1171264648438 C 999.851318359375 505.1170654296875 999.7183227539063 505.1201171875 999.5828857421875 505.126220703125 C 992.56005859375 505.44384765625 992.030517578125 512.8905029296875 992.030517578125 512.8905029296875 C 992.030517578125 512.8905029296875 991.9668579101563 512.8872680664063 991.8505249023438 512.8872680664063 C 990.8455200195313 512.8872680664063 985.900634765625 513.1270141601563 983.9298095703125 517.7498779296875 C 981.7310791015625 522.9078369140625 985.889892578125 526.371826171875 985.889892578125 526.371826171875 C 985.889892578125 526.371826171875 987.8389892578125 527.96484375 990.035888671875 528.3707275390625 C 990.4887084960938 528.454345703125 990.9523315429688 528.487548828125 991.4026489257813 528.487548828125 C 993.1370239257813 528.487548828125 994.677490234375 527.9952392578125 994.677490234375 527.9952392578125 C 994.677490234375 527.9952392578125 997.668212890625 526.6922607421875 999.829833984375 525.113037109375 C 1001.991577148438 523.5338134765625 1003.323852539063 521.6781005859375 1003.323852539063 521.6781005859375 L 1002.441650390625 520.97216796875 L 1006.57080078125 519.101806640625 L 1005.82958984375 523.442626953125 L 1005.017944335938 522.8779296875 C 1005.017944335938 522.8779296875 1003.7666015625 524.9752197265625 1002.231567382813 526.386962890625 C 1000.696166992188 527.7984619140625 998.877197265625 528.524658203125 998.877197265625 528.524658203125 L 1007.10009765625 528.524658203125 C 1007.10009765625 528.524658203125 1014.6171875 528.312744140625 1015.252563476563 521.289794921875 C 1015.887817382813 514.266845703125 1007.84130859375 512.8905029296875 1007.84130859375 512.8905029296875 C 1007.84130859375 512.8905029296875 1006.65283203125 505.1173095703125 999.9825439453125 505.1171264648438 M 999.9818725585938 504.1171264648438 L 999.9818725585938 505.1171264648438 L 999.9820556640625 504.1171264648438 C 1003.086120605469 504.1171875 1005.608703613281 505.6331176757813 1007.277587890625 508.5009155273438 C 1008.083557128906 509.8858642578125 1008.497985839844 511.263916015625 1008.689270019531 512.057861328125 C 1009.501892089844 512.2697143554688 1010.925415039063 512.7296142578125 1012.319641113281 513.6113891601563 C 1015.185668945313 515.4238891601563 1016.544250488281 518.1101684570313 1016.248474121094 521.3798828125 C 1015.877807617188 525.4773559570313 1013.389465332031 527.4830322265625 1011.367309570313 528.4440307617188 C 1009.24267578125 529.4537353515625 1007.213623046875 529.5218505859375 1007.128295898438 529.5242919921875 L 1007.114196777344 529.524658203125 L 1007.10009765625 529.524658203125 L 998.877197265625 529.524658203125 L 998.5064086914063 527.595947265625 C 998.5216064453125 527.58984375 1000.182250976563 526.9125366210938 1001.554809570313 525.6507568359375 C 1002.966125488281 524.352783203125 1004.147399902344 522.38525390625 1004.1591796875 522.3655395507813 L 1004.640625 521.5586547851563 L 1004.136169433594 522.2612915039063 C 1004.077941894531 522.3424072265625 1002.6845703125 524.2659912109375 1000.419738769531 525.9205322265625 C 998.1945190429688 527.5462036132813 995.203125 528.8570556640625 995.076904296875 528.9119873046875 L 995.0303344726563 528.9323120117188 L 994.98193359375 528.94775390625 C 994.9129638671875 528.9698486328125 993.2714233398438 529.487548828125 991.402587890625 529.487548828125 C 990.8547973632813 529.487548828125 990.3338623046875 529.442626953125 989.854248046875 529.3541259765625 C 987.4327392578125 528.90673828125 985.3447875976563 527.2177734375 985.257080078125 527.1461181640625 L 985.2534790039063 527.1431884765625 L 985.2498779296875 527.1401977539063 C 985.200927734375 527.0994262695313 984.0416259765625 526.1226806640625 983.1931762695313 524.44677734375 C 982.3993530273438 522.87890625 981.7232055664063 520.376220703125 983.0098876953125 517.3577270507813 C 984.9215087890625 512.8736572265625 989.2913818359375 512.0557250976563 991.1617431640625 511.9150390625 C 991.3125610351563 511.119140625 991.6312866210938 509.8981323242188 992.2900390625 508.6582641601563 C 993.3339233398438 506.6935424804688 995.438720703125 504.3126220703125 999.5377197265625 504.1272583007813 C 999.6864013671875 504.1204833984375 999.8358154296875 504.1171264648438 999.9818725585938 504.1171264648438 Z M 1005.108764648438 521.722900390625 L 1005.268127441406 520.7896728515625 L 1004.339721679688 521.210205078125 L 1004.68408203125 521.48583984375 L 1004.708679199219 521.444580078125 L 1005.108764648438 521.722900390625 Z" stroke="none" fill="#00b9ff"/></g></g></svg>