<svg xmlns="http://www.w3.org/2000/svg" width="115" height="115" viewBox="0 0 115 115"><g transform="translate(-950.5 -329.5)"><circle cx="57.5" cy="57.5" r="57.5" transform="translate(950.5 329.5)" fill="rgba(0,64,191,0.07)"/><circle cx="41" cy="41" r="41" transform="translate(966.5 345.5)" fill="rgba(0,64,191,0.15)"/><path d="M41.122,10.994H39.686V8.829H32.471v2.165H29.584V6.813A2.316,2.316,0,0,0,27.271,4.5H16.023A2.316,2.316,0,0,0,13.71,6.813v4.181H10.824V8.829H3.608v2.165H2.172A2.175,2.175,0,0,0,0,13.166V39.128A2.175,2.175,0,0,0,2.172,41.3h38.95a2.175,2.175,0,0,0,2.172-2.172V13.166A2.175,2.175,0,0,0,41.122,10.994Zm-7.208-.722h4.329v.722H33.914ZM15.153,6.813a.871.871,0,0,1,.87-.87H27.271a.871.871,0,0,1,.87.87v4.181H15.153ZM13.71,12.437H36.078v27.42H7.216V12.437H13.71ZM5.051,10.273H9.38v.722H5.051ZM1.443,39.128V13.166a.73.73,0,0,1,.729-.729h3.6v27.42h-3.6A.73.73,0,0,1,1.443,39.128Zm40.408,0a.73.73,0,0,1-.729.729h-3.6V12.437h3.6a.73.73,0,0,1,.729.729Z" transform="translate(985.853 363.735)" fill="#0040bf"/><circle cx="11.5" cy="11.5" r="11.5" transform="translate(1025.5 347.5)" fill="#0040bf"/><path d="M16.681,11a4.022,4.022,0,0,0-6.645,1.952.288.288,0,0,1-.279.219H8.385A.287.287,0,0,1,8.1,12.83a5.936,5.936,0,0,1,9.933-3.186l.855-.855a.574.574,0,0,1,.981.406V12.4a.574.574,0,0,1-.574.574H16.088A.574.574,0,0,1,15.682,12ZM8.574,14.893h3.208a.574.574,0,0,1,.406.981l-1,1a4.022,4.022,0,0,0,6.645-1.952.288.288,0,0,1,.279-.219h1.371a.287.287,0,0,1,.283.339,5.936,5.936,0,0,1-9.933,3.186l-.855.855A.574.574,0,0,1,8,18.676V15.467A.574.574,0,0,1,8.574,14.893Z" transform="translate(1023.435 345.435)" fill="#fff"/></g></svg>