<svg xmlns="http://www.w3.org/2000/svg" width="24" height="23.766" viewBox="0 0 24 23.766"><g transform="translate(0 -0.293)"><path d="M24,1.893a1.6,1.6,0,0,0-1.6-1.6H1.6a1.6,1.6,0,0,0-.4,3.143V22.859l1.2-1.2,2.4,2.4,2.4-2.4,2.4,2.4,2.4-2.4,2.4,2.4,2.4-2.4,2.4,2.4,2.4-2.4,1.2,1.2V3.436A1.6,1.6,0,0,0,24,1.893ZM22,20.927l-.4-.4-2.4,2.4-2.4-2.4-2.4,2.4-2.4-2.4-2.4,2.4-2.4-2.4-2.4,2.4-2.4-2.4-.4.4V2.293H22V20.927Zm.8-18.342V1.493H1.2V2.585a.8.8,0,0,1,.4-1.492H22.4a.8.8,0,0,1,.4,1.492Z" fill="#a2b7c1"/><path d="M34.4,40.293h-6a.4.4,0,0,0,0,.8h6a.4.4,0,0,0,0-.8Z" transform="translate(-16.8 -24)" fill="#a2b7c1"/><path d="M48.116,40.417A.412.412,0,0,0,48,40.7a.4.4,0,1,0,.8,0,.412.412,0,0,0-.116-.284A.419.419,0,0,0,48.116,40.417Z" transform="translate(-28.8 -24.007)" fill="#a2b7c1"/><path d="M39.4,26.293h-6a.4.4,0,1,0,0,.8h6a.4.4,0,0,0,0-.8Z" transform="translate(-19.8 -15.6)" fill="#a2b7c1"/><path d="M42.4,33.293h-4a.4.4,0,1,0,0,.8h4a.4.4,0,0,0,0-.8Z" transform="translate(-22.8 -19.8)" fill="#a2b7c1"/><path d="M28,33.693a.4.4,0,0,0,.4.4h.8a.4.4,0,0,0,0-.8h-.8A.4.4,0,0,0,28,33.693Z" transform="translate(-16.8 -19.8)" fill="#a2b7c1"/><path d="M34.8,19.693a.4.4,0,0,0-.4-.4h-6a.4.4,0,1,0,0,.8h6A.4.4,0,0,0,34.8,19.693Z" transform="translate(-16.8 -11.4)" fill="#a2b7c1"/><path d="M48.116,19.417A.412.412,0,0,0,48,19.7a.4.4,0,0,0,.4.4.413.413,0,0,0,.284-.116.4.4,0,0,0-.568-.568Z" transform="translate(-28.8 -11.408)" fill="#a2b7c1"/><path d="M29.684,26.985a.406.406,0,0,0,0-.568.419.419,0,0,0-.568,0,.406.406,0,0,0,0,.568.406.406,0,0,0,.568,0Z" transform="translate(-17.4 -15.608)" fill="#a2b7c1"/><path d="M34.684,33.984A.413.413,0,0,0,34.8,33.7a.405.405,0,0,0-.116-.284.4.4,0,1,0,0,.568Z" transform="translate(-20.4 -19.807)" fill="#a2b7c1"/><path d="M13.4,20.133v-.44a.4.4,0,1,0-.8,0v.442a1.994,1.994,0,0,0-1.127.667,1.375,1.375,0,0,0-.318,1.041,1.46,1.46,0,0,0,.553,1l.892.694v2.175a1.2,1.2,0,0,1-.8-1.126.4.4,0,0,0-.8,0,2,2,0,0,0,1.6,1.96v.351a.4.4,0,0,0,.8,0V26.54a2,2,0,0,0,1.128-.667,1.378,1.378,0,0,0,.317-1.042,1.459,1.459,0,0,0-.553-1l-.892-.693V20.967a1.2,1.2,0,0,1,.8,1.126.4.4,0,1,0,.8,0A2,2,0,0,0,13.4,20.133Zm.4,4.334a.657.657,0,0,1,.249.447.583.583,0,0,1-.132.442,1.2,1.2,0,0,1-.517.35V24.155Zm-1.6-2.259a.657.657,0,0,1-.249-.448.584.584,0,0,1,.132-.442,1.2,1.2,0,0,1,.517-.35v1.551Z" transform="translate(-6.6 -11.4)" fill="#a2b7c1"/><circle cx="0.4" cy="0.4" r="0.4" transform="translate(15.6 4.293)" fill="#a2b7c1"/><circle cx="0.4" cy="0.4" r="0.4" transform="translate(14 4.293)" fill="#a2b7c1"/><circle cx="0.4" cy="0.4" r="0.4" transform="translate(17.2 4.293)" fill="#a2b7c1"/><circle cx="0.4" cy="0.4" r="0.4" transform="translate(12.4 4.293)" fill="#a2b7c1"/><circle cx="0.4" cy="0.4" r="0.4" transform="translate(18.8 4.293)" fill="#a2b7c1"/><circle cx="0.4" cy="0.4" r="0.4" transform="translate(7.6 4.293)" fill="#a2b7c1"/><circle cx="0.4" cy="0.4" r="0.4" transform="translate(9.2 4.293)" fill="#a2b7c1"/><circle cx="0.4" cy="0.4" r="0.4" transform="translate(10.8 4.293)" fill="#a2b7c1"/><circle cx="0.4" cy="0.4" r="0.4" transform="translate(20.4 4.293)" fill="#a2b7c1"/><circle cx="0.4" cy="0.4" r="0.4" transform="translate(6 4.293)" fill="#a2b7c1"/><circle cx="0.4" cy="0.4" r="0.4" transform="translate(4.4 4.293)" fill="#a2b7c1"/><circle cx="0.4" cy="0.4" r="0.4" transform="translate(2.8 4.293)" fill="#a2b7c1"/></g></svg>