<svg xmlns="http://www.w3.org/2000/svg" width="23.586" height="24" viewBox="0 0 23.586 24"><g transform="translate(-0.5)"><path d="M13.534,0a9.281,9.281,0,0,0-1.248.087A9.263,9.263,0,0,0,11.052,0,9.569,9.569,0,0,0,5.536,1.775h0a11.062,11.062,0,0,0-2.2,2.057.4.4,0,0,0-.05.06A12.179,12.179,0,0,0,1.712,6.426a.39.39,0,0,0-.029.064A12.931,12.931,0,0,0,.955,8.515a.414.414,0,0,0-.032.129A13.489,13.489,0,0,0,.5,12a13.3,13.3,0,0,0,1,5.1.345.345,0,0,0,.02.05,12.349,12.349,0,0,0,1.434,2.539A.4.4,0,0,0,3,19.747a11.283,11.283,0,0,0,1.961,2.044.4.4,0,0,0,.073.059A9.643,9.643,0,0,0,11.052,24a9.263,9.263,0,0,0,1.235-.087A9.281,9.281,0,0,0,13.534,24c5.818,0,10.552-5.383,10.552-12S19.353,0,13.534,0ZM9.156,1.086q-.2.1-.39.214c-.078.045-.157.089-.234.137-.113.07-.224.144-.335.218H7.4A8.705,8.705,0,0,1,9.294,1.01C9.248,1.034,9.2,1.062,9.156,1.086ZM4.994,19.034H3.51a11.437,11.437,0,0,1-.97-1.655H4.107q.1.22.2.435c.03.061.061.121.092.182q.128.251.266.493c.034.06.066.12.1.178C4.84,18.792,4.916,18.914,4.994,19.034Zm-2.645-12H3.932q-.109.272-.206.55l-.053.152c-.06.178-.115.358-.168.539H1.889A11.96,11.96,0,0,1,2.349,7.034ZM1.328,12c0-.279.015-.554.032-.828H3.01c0,.007,0,.013,0,.02-.015.267-.026.536-.026.808,0,.139,0,.276.009.414H1.344C1.339,12.276,1.328,12.139,1.328,12Zm1.711,1.241c.016.174.036.347.058.519,0,.012,0,.025,0,.038.031.23.068.458.11.684H1.579c-.081-.406-.144-.82-.185-1.241ZM3.3,9.1c-.011.049-.02.1-.03.148s-.022.108-.033.162c-.05.26-.1.522-.131.787,0,.012,0,.025,0,.038,0,.035-.007.07-.012.106H1.443A12.5,12.5,0,0,1,1.662,9.1Zm.1,6.207c.013.051.025.1.038.153,0,.018.009.036.014.054.068.252.145.5.227.746.017.051.035.1.053.152s.031.091.047.136H2.179a12.129,12.129,0,0,1-.407-1.241H3.394ZM4.767,5.332c-.034.059-.067.119-.1.178Q4.528,5.753,4.4,6c-.031.06-.062.12-.092.182L4.3,6.207H2.746A11.261,11.261,0,0,1,3.821,4.552H5.27c-.05.072-.1.144-.15.218C5,4.953,4.88,5.14,4.767,5.332ZM5.975,2.483H7.118c-.1.089-.2.18-.3.273-.084.079-.166.162-.247.244s-.161.164-.24.248-.154.164-.229.248-.129.151-.193.228H4.538A10.028,10.028,0,0,1,5.975,2.483ZM4.151,19.862h1.42c.047.061.093.123.141.183q.187.235.385.459c.075.085.152.166.229.248s.159.167.24.248c.034.034.066.07.1.1H5.422A10.276,10.276,0,0,1,4.151,19.862ZM9.294,22.99a8.827,8.827,0,0,1-2.677-1.059h1c.052.04.1.077.157.116.088.065.175.131.265.194q.241.168.491.322c.077.048.156.091.234.137q.193.112.39.214C9.2,22.938,9.248,22.966,9.294,22.99Zm4.24.182a8.533,8.533,0,0,1-.974-.056l-.164-.023-.061-.009q-.216-.03-.429-.072l-.031-.006q-.208-.041-.412-.091L11.41,22.9c-.128-.033-.255-.067-.381-.106l-.1-.033c-.11-.035-.219-.07-.326-.11-.077-.028-.152-.059-.227-.089s-.13-.049-.193-.076A10.321,10.321,0,0,1,4.99,17.33l-.029-.065c-.06-.129-.119-.26-.175-.392-.022-.052-.042-.1-.063-.156-.042-.1-.084-.207-.123-.312-.025-.067-.048-.134-.072-.2-.033-.092-.065-.185-.1-.279-.025-.076-.048-.152-.072-.228s-.053-.176-.078-.265-.044-.162-.065-.243-.044-.175-.065-.263-.039-.167-.057-.251-.036-.177-.053-.266-.032-.169-.047-.254-.029-.185-.043-.278-.025-.166-.036-.25c-.013-.1-.023-.2-.033-.3-.008-.078-.017-.156-.024-.235-.01-.115-.017-.231-.023-.347,0-.065-.009-.13-.012-.2Q3.811,12.277,3.81,12c0-.185,0-.368.012-.55,0-.065.008-.13.012-.2.007-.116.013-.232.023-.347.007-.079.016-.156.024-.235.01-.1.021-.2.033-.3.011-.084.024-.167.036-.25s.028-.185.043-.278.031-.17.047-.254.035-.178.053-.266.037-.168.057-.251.043-.175.065-.263.043-.162.065-.243.051-.177.078-.265.048-.152.072-.227c.031-.094.063-.186.1-.279.024-.067.047-.135.072-.2.039-.105.081-.209.123-.312.021-.052.041-.1.063-.156.056-.132.115-.263.175-.392.01-.022.019-.043.029-.065a10.319,10.319,0,0,1,5.191-5.158c.064-.027.129-.05.193-.076s.151-.061.227-.089c.108-.039.217-.075.326-.11l.1-.033c.126-.038.253-.073.381-.106l.054-.014q.2-.051.412-.091l.031-.006q.213-.041.429-.072L12.4.907,12.56.884a8.532,8.532,0,0,1,.974-.056C18.9.828,23.259,5.839,23.259,12S18.9,23.172,13.534,23.172Z" fill="#a2b7c1"/><path d="M31.4,7.3a6.607,6.607,0,0,1,.752.043.389.389,0,0,0,.048,0,.414.414,0,0,0,.048-.825,7.312,7.312,0,0,0-.856-.049h0l-.005.414V6.476a.406.406,0,0,0-.405.414A.422.422,0,0,0,31.4,7.3Z" transform="translate(-17.866 -3.796)" fill="#a2b7c1"/><path d="M23.742,8.7a.413.413,0,0,0,.187-.045,6.839,6.839,0,0,1,.707-.312.414.414,0,1,0-.29-.775,7.669,7.669,0,0,0-.793.35.414.414,0,0,0,.188.782Z" transform="translate(-13.382 -4.419)" fill="#a2b7c1"/><path d="M48.787,21.449a.414.414,0,0,0,.4.313.424.424,0,0,0,.1-.012.414.414,0,0,0,.3-.5c-.069-.275-.151-.551-.243-.82a.414.414,0,0,0-.783.269C48.648,20.943,48.723,21.2,48.787,21.449Z" transform="translate(-28.162 -11.811)" fill="#a2b7c1"/><path d="M45.964,14.089c-.16-.236-.333-.468-.514-.688a.414.414,0,0,0-.639.526c.165.2.322.411.468.626a.414.414,0,0,0,.685-.464Z" transform="translate(-25.92 -7.768)" fill="#a2b7c1"/><path d="M30.255,49.456a6.5,6.5,0,0,1-.768-.046.414.414,0,0,0-.1.822,7.382,7.382,0,0,0,.867.051h.035a.4.4,0,0,0,.4-.414A.43.43,0,0,0,30.255,49.456Z" transform="translate(-16.721 -28.964)" fill="#a2b7c1"/><path d="M44.114,42.8c-.164.2-.339.4-.521.581a.414.414,0,0,0,.589.582c.2-.2.392-.418.574-.64a.414.414,0,0,0-.642-.523Z" transform="translate(-25.191 -25.003)" fill="#a2b7c1"/><path d="M37.872,47.689a6.765,6.765,0,0,1-.706.313.414.414,0,1,0,.292.774,7.657,7.657,0,0,0,.792-.351.414.414,0,1,0-.379-.736Z" transform="translate(-21.337 -27.928)" fill="#a2b7c1"/><path d="M39.944,8.775a7.739,7.739,0,0,0-.75-.432.414.414,0,0,0-.373.739,6.984,6.984,0,0,1,.67.386.41.41,0,0,0,.226.067.414.414,0,0,0,.227-.761Z" transform="translate(-22.331 -4.865)" fill="#a2b7c1"/><path d="M50.2,27.968a.425.425,0,0,0-.414.427c0,.256-.01.511-.029.761a.413.413,0,0,0,.381.444h.032a.414.414,0,0,0,.412-.382c.021-.271.031-.548.031-.825v-.026A.4.4,0,0,0,50.2,27.968Z" transform="translate(-28.877 -16.395)" fill="#a2b7c1"/><path d="M12.995,27.266c0-.258.01-.52.031-.778a.414.414,0,0,0-.825-.065c-.022.28-.033.564-.033.843v.009a.41.41,0,0,0,.414.409A.417.417,0,0,0,12.995,27.266Z" transform="translate(-6.839 -15.266)" fill="#a2b7c1"/><path d="M48.709,35.752a.415.415,0,0,0-.524.26c-.084.247-.179.494-.283.732a.414.414,0,0,0,.759.33c.113-.26.216-.529.307-.8A.413.413,0,0,0,48.709,35.752Z" transform="translate(-27.767 -20.946)" fill="#a2b7c1"/><path d="M14.308,18.414a.411.411,0,0,0-.545.213c-.113.259-.218.528-.31.8a.414.414,0,1,0,.784.266c.084-.248.18-.494.284-.732A.414.414,0,0,0,14.308,18.414Z" transform="translate(-7.581 -10.774)" fill="#a2b7c1"/><path d="M16.83,41.309a.414.414,0,1,0-.686.463c.162.24.334.471.512.689a.414.414,0,0,0,.64-.525C17.136,41.738,16.978,41.527,16.83,41.309Z" transform="translate(-9.129 -24.109)" fill="#a2b7c1"/><path d="M13.7,34.223a.414.414,0,1,0-.8.2c.069.276.15.552.242.821a.414.414,0,0,0,.391.28.419.419,0,0,0,.134-.022.414.414,0,0,0,.258-.526C13.837,34.73,13.763,34.476,13.7,34.223Z" transform="translate(-7.26 -19.878)" fill="#a2b7c1"/><path d="M17.9,11.967c-.2.2-.393.416-.575.639a.414.414,0,0,0,.641.524c.165-.2.341-.4.522-.58a.414.414,0,0,0-.588-.583Z" transform="translate(-9.807 -6.943)" fill="#a2b7c1"/><path d="M22.962,47.145a6.978,6.978,0,0,1-.67-.388.414.414,0,1,0-.454.692,7.853,7.853,0,0,0,.749.434.409.409,0,0,0,.187.045.414.414,0,0,0,.187-.782Z" transform="translate(-12.399 -27.37)" fill="#a2b7c1"/><path d="M29.374,20.028a7.305,7.305,0,0,0-1.4-.511l-.631-.166v-3.7a2.691,2.691,0,0,1,.534.164,4.05,4.05,0,0,1,1.547,1.19v.862a.409.409,0,0,0,.817,0V15.316a.408.408,0,0,0-.817,0v.544c-.095-.074-.031-.159-.166-.256a4.742,4.742,0,0,0-1.915-.772v-.591a.408.408,0,1,0-.817,0v.533a3.535,3.535,0,0,0-2.364.724,2.524,2.524,0,0,0-.806,1.954,1.877,1.877,0,0,0,.37,1.145,2.756,2.756,0,0,0,1.015.808,10.791,10.791,0,0,0,1.786.624v3.958a3.189,3.189,0,0,1-.593-.157,3.26,3.26,0,0,1-1.5-.927v-.928a.409.409,0,0,0-.817,0v2.553a.408.408,0,0,0,.817,0v-.545a3.642,3.642,0,0,0,2.088.83v.581a.408.408,0,0,0,.817,0v-.533a3.855,3.855,0,0,0,2.492-.76,2.587,2.587,0,0,0,.92-2.079,1.942,1.942,0,0,0-.37-1.185A2.759,2.759,0,0,0,29.374,20.028Zm-2.845-.905-.468-.136a6.48,6.48,0,0,1-.872-.326,2.048,2.048,0,0,1-.733-.55,1.159,1.159,0,0,1-.28-.78,1.544,1.544,0,0,1,.586-1.227,2.78,2.78,0,0,1,1.768-.513v3.531Zm3.043,4.661c-.007.006-.016.01-.023.015.06-.049.118-.1.171-.152C29.675,23.694,29.625,23.739,29.573,23.783Zm-.3-.292a3.11,3.11,0,0,1-1.927.552V20.251l.651.182a6.6,6.6,0,0,1,.931.338,2.057,2.057,0,0,1,.733.549,1.163,1.163,0,0,1,.281.78A1.687,1.687,0,0,1,29.274,23.492Z" transform="translate(-13.4 -8.109)" fill="#a2b7c1"/></g></svg>