<svg xmlns="http://www.w3.org/2000/svg" width="24.2" height="24.206" viewBox="0 0 24.2 24.206"><g transform="translate(0.093 0.1)"><path d="M16.807,0h-9.6a7.208,7.208,0,0,0-7.2,7.2v5.6a7.208,7.208,0,0,0,7.2,7.2h.712A10.366,10.366,0,0,1,15.3,23.056l.75.751a.678.678,0,0,0,.479.2.686.686,0,0,0,.261-.052.677.677,0,0,0,.419-.627V19.99a7.209,7.209,0,0,0,6.8-7.189V7.2A7.208,7.208,0,0,0,16.807,0Zm6.4,12.8a6.4,6.4,0,0,1-6,6.38V17.6a.4.4,0,0,0-.8,0v5.434l-.544-.544A11.161,11.161,0,0,0,7.92,19.2H7.208a6.408,6.408,0,0,1-6.4-6.4V7.2A6.408,6.408,0,0,1,7.208.8h9.6a6.408,6.408,0,0,1,6.4,6.4v5.6Z" fill="#a2b7c1" stroke="#a2b7c1" stroke-width="0.2"/><path d="M16.407,17.815h5.6a.4.4,0,1,0,0-.8h-5.6a.4.4,0,1,0,0,.8Z" transform="translate(-9.6 -10.209)" fill="#a2b7c1" stroke="#a2b7c1" stroke-width="0.2"/><path d="M27.207,25.015h-10.8a.4.4,0,1,0,0,.8h10.8a.4.4,0,1,0,0-.8Z" transform="translate(-9.6 -15.009)" fill="#a2b7c1" stroke="#a2b7c1" stroke-width="0.2"/><path d="M27.207,33.015h-10.8a.4.4,0,1,0,0,.8h10.8a.4.4,0,1,0,0-.8Z" transform="translate(-9.6 -19.809)" fill="#a2b7c1" stroke="#a2b7c1" stroke-width="0.2"/></g></svg>