<svg xmlns="http://www.w3.org/2000/svg" width="24" height="24" viewBox="0 0 24 24"><path d="M23,10.8H21.6V8.293A1.094,1.094,0,0,0,20.507,7.2H20V0H4V.8H2.8v.8H1.6V4.4H1.093A1.094,1.094,0,0,0,0,5.493V22.968H0A1.021,1.021,0,0,0,1.026,24h17.9a1.014,1.014,0,0,0,.98-.725L24,12.06v-.071A1.071,1.071,0,0,0,23,10.8ZM20.507,8a.293.293,0,0,1,.293.293V10.8H20V8ZM19.2.8v10H5.092a1.024,1.024,0,0,0-.27.039l-.023,0V.8ZM4,1.6V11.834l-.025.069L3.6,12.93V1.6Zm-1.6.8h.4V15.124l-.4,1.1V2.4ZM.8,5.493A.293.293,0,0,1,1.093,5.2H1.6V18.377L.8,20.559ZM19.147,23.034a.225.225,0,0,1-.218.166H1.026a.221.221,0,0,1-.179-.089A.217.217,0,0,1,.8,22.948l.8-2.2h0l1.2-3.29h0L4,14.168H4l.773-2.12.027-.074h0l.064-.176.01-.033a.226.226,0,0,1,.218-.167H23c.152,0,.191.218.2.328Z" fill="#a2b7c1"/><path d="M17.4,15.8H27a.4.4,0,1,0,0-.8H17.4a.4.4,0,0,0,0,.8Z" transform="translate(-10.2 -9)" fill="#a2b7c1"/><path d="M17.4,8.8h4a.4.4,0,0,0,0-.8h-4a.4.4,0,0,0,0,.8Z" transform="translate(-10.2 -4.8)" fill="#a2b7c1"/><path d="M17.4,22.8H27a.4.4,0,1,0,0-.8H17.4a.4.4,0,0,0,0,.8Z" transform="translate(-10.2 -13.2)" fill="#a2b7c1"/></svg>