<svg xmlns="http://www.w3.org/2000/svg" xmlns:xlink="http://www.w3.org/1999/xlink" width="28" height="28" viewBox="0 0 28 28"><defs><clipPath id="b"><rect width="28" height="28"/></clipPath></defs><g id="a" clip-path="url(#b)"><rect width="28" height="28" fill="rgba(255,255,255,0)"/><g transform="translate(1 0.506)"><path d="M19.6.494H11.17A6.4,6.4,0,0,0,5.076,4.967,6.413,6.413,0,0,0,0,11.23v4.917a6.565,6.565,0,0,0,6.067,6.432v2.808a.661.661,0,0,0,.387.635.573.573,0,0,0,.218.044.646.646,0,0,0,.455-.2l.659-.659a9,9,0,0,1,6.419-2.614h.625a6.418,6.418,0,0,0,6.106-4.508A6.554,6.554,0,0,0,26,11.813V6.9A6.41,6.41,0,0,0,19.6.494ZM14.83,21.727h-.625A9.861,9.861,0,0,0,7.173,24.6l-.24.24V20.36a.433.433,0,1,0-.867,0V21.7a5.682,5.682,0,0,1-5.2-5.558V11.23A5.545,5.545,0,0,1,5.261,5.814l.2-.034.029,0c.154-.026.3-.044.443-.058s.31-.024.468-.024H14.83a5.543,5.543,0,0,1,5.536,5.536v4.917c0,.157-.011.311-.023.464-.006.075-.013.149-.023.224-.006.045-.014.09-.02.136a5.842,5.842,0,0,1-.134.64l-.067.247A5.55,5.55,0,0,1,14.83,21.727Zm10.3-9.914a5.678,5.678,0,0,1-3.981,5.323c.006-.034.007-.067.012-.1.015-.11.03-.219.04-.331.017-.187.028-.373.028-.558V11.23a6.41,6.41,0,0,0-6.4-6.4H6.4c-.12,0-.243,0-.367.012A5.54,5.54,0,0,1,11.17,1.361H19.6A5.542,5.542,0,0,1,25.133,6.9Z" transform="translate(0 0)" fill="#38596a"/><path d="M10.733,27.494a1.733,1.733,0,1,0,1.733,1.733A1.735,1.735,0,0,0,10.733,27.494Zm0,2.6a.867.867,0,1,1,.867-.867A.868.868,0,0,1,10.733,30.094Z" transform="translate(-5.1 -15.3)" fill="#38596a"/><path d="M22.733,27.494a1.733,1.733,0,1,0,1.733,1.733A1.735,1.735,0,0,0,22.733,27.494Zm0,2.6a.867.867,0,1,1,.867-.867A.868.868,0,0,1,22.733,30.094Z" transform="translate(-11.9 -15.3)" fill="#38596a"/><path d="M34.733,27.494a1.733,1.733,0,1,0,1.733,1.733A1.735,1.735,0,0,0,34.733,27.494Zm0,2.6a.867.867,0,1,1,.867-.867A.868.868,0,0,1,34.733,30.094Z" transform="translate(-18.7 -15.3)" fill="#38596a"/></g></g></svg>