<svg xmlns="http://www.w3.org/2000/svg" xmlns:xlink="http://www.w3.org/1999/xlink" width="270" height="254" viewBox="0 0 270 254"><defs><linearGradient id="a" x1="1.024" y1="1.244" x2="0.534" y2="0.677" gradientUnits="objectBoundingBox"><stop offset="0" stop-color="#9ecfff"/><stop offset="1" stop-color="#d8eeff"/></linearGradient><linearGradient id="b" y1="-0.091" x2="0.917" y2="1.069" gradientUnits="objectBoundingBox"><stop offset="0" stop-color="#bff6ff"/><stop offset="0.397" stop-color="#a1d3ff"/><stop offset="1" stop-color="#0040bf"/></linearGradient></defs><g transform="translate(0 -16)"><g transform="translate(29.531 40.078)"><path d="M288.559,131.371H185.727V76H56v88.066h97.559V274.281a7.91,7.91,0,0,0,7.91,7.91h67.915L250.8,303.6a7.91,7.91,0,0,0,13.5-5.593v-15.82h24.258a7.91,7.91,0,0,0,7.91-7.91v-135A7.91,7.91,0,0,0,288.559,131.371Z" transform="translate(-56 -76)" fill="url(#a)"/></g><g transform="translate(0 16)"><path d="M198.281,183.464c-4.369,0-7.91,3.277-7.91,7.319s3.542,7.319,7.91,7.319,7.91-3.277,7.91-7.319S202.65,183.464,198.281,183.464Zm0-65.871c-13.085,0-23.73,9.85-23.73,21.957,0,4.042,3.542,7.319,7.91,7.319s7.91-3.277,7.91-7.319,3.548-7.319,7.91-7.319,7.91,3.283,7.91,7.319a7.317,7.317,0,0,1-4.986,6.8c-6.582,2.426-10.835,8.229-10.835,14.784v.368c0,4.042,3.542,7.319,7.91,7.319s7.91-3.277,7.91-7.319v-.368a1.291,1.291,0,0,1,.869-1.185c9.083-3.348,14.952-11.356,14.952-20.4,0-12.107-10.645-21.957-23.73-21.957Zm-23.73-65.871C174.551,23.2,149.712,0,119.18,0H55.9A57.786,57.786,0,0,0,16.482,15.25C5.854,25.084,0,38.036,0,51.721V95.635A34.789,34.789,0,0,0,11.912,121.57a41.316,41.316,0,0,0,20.256,9.939v22.678a7.337,7.337,0,0,0,4.883,6.762,8.383,8.383,0,0,0,8.62-1.587L75,132.23H119.18c30.532,0,55.371-22.983,55.371-51.233ZM55.9,73.678c-4.369,0-7.91-3.277-7.91-7.319S51.53,59.04,55.9,59.04s7.91,3.277,7.91,7.319S60.267,73.678,55.9,73.678Zm31.641,0c-4.369,0-7.91-3.277-7.91-7.319s3.542-7.319,7.91-7.319,7.91,3.277,7.91,7.319S91.908,73.678,87.539,73.678Zm31.641,0c-4.369,0-7.91-3.277-7.91-7.319s3.542-7.319,7.91-7.319,7.91,3.277,7.91,7.319S123.549,73.678,119.18,73.678Z" transform="translate(0 0)" fill="url(#b)"/></g></g></svg>