<svg xmlns="http://www.w3.org/2000/svg" width="24.533" height="32" viewBox="0 0 24.533 32"><path d="M28.874,22.874l-5.095-2.547A1.4,1.4,0,0,1,23,19.066v-1.8c.122-.149.251-.319.383-.507a12.206,12.206,0,0,0,1.575-3.093A2.116,2.116,0,0,0,26.2,11.733V9.6a2.127,2.127,0,0,0-.533-1.4V5.363a4.781,4.781,0,0,0-1.116-3.48C23.455.634,21.678,0,19.267,0s-4.189.634-5.284,1.883a4.782,4.782,0,0,0-1.116,3.481V8.2a2.127,2.127,0,0,0-.533,1.4v2.133a2.121,2.121,0,0,0,.8,1.658A11.193,11.193,0,0,0,15,17.251v1.765a1.409,1.409,0,0,1-.734,1.237l-4.758,2.6A4.809,4.809,0,0,0,7,27.073V28.8C7,31.331,15.024,32,19.267,32s12.267-.669,12.267-3.2V27.177A4.786,4.786,0,0,0,28.874,22.874ZM30.467,28.8c0,.724-3.953,2.133-11.2,2.133s-11.2-1.41-11.2-2.133V27.073a3.742,3.742,0,0,1,1.951-3.287l4.758-2.6a2.477,2.477,0,0,0,1.291-2.174V16.873l-.124-.148a10.069,10.069,0,0,1-1.819-3.768l-.049-.211-.182-.117a1.064,1.064,0,0,1-.493-.894V9.6a1.053,1.053,0,0,1,.357-.787l.176-.158V5.333l0-.07a3.7,3.7,0,0,1,.856-2.678c.884-1.008,2.392-1.519,4.482-1.519s3.588.507,4.473,1.508A3.754,3.754,0,0,1,24.6,5.263l0,3.391.176.159a1.051,1.051,0,0,1,.357.786v2.133a1.061,1.061,0,0,1-.758,1.013l-.266.082-.085.264a11.165,11.165,0,0,1-1.511,3.047,7.017,7.017,0,0,1-.446.575l-.133.151v2.2A2.463,2.463,0,0,0,23.3,21.281L28.4,23.828a3.724,3.724,0,0,1,2.07,3.349Z" transform="translate(-7)" fill="#fff"/></svg>