<svg xmlns="http://www.w3.org/2000/svg" width="64" height="65.013" viewBox="0 0 64 65.013"><g transform="translate(-0.466 0.001)"><path d="M16.926,10.866A3.145,3.145,0,0,0,19.884,13h8.052a3.145,3.145,0,0,0,2.958-2.135c.42-1.22,1.741-3.95,2.766-4.816a3.24,3.24,0,0,0,1.1-3.079A3.084,3.084,0,0,0,32.67.606c-3.252-1.078-6.136-.715-8.341,1.048a1.039,1.039,0,0,1-1.322,0C20.8-.108,17.919-.471,14.666.607a3.083,3.083,0,0,0-2.09,2.364,3.24,3.24,0,0,0,1.1,3.079A17.062,17.062,0,0,1,16.926,10.866ZM14.7,3.384a.921.921,0,0,1,.644-.719,8.992,8.992,0,0,1,2.816-.5,5.428,5.428,0,0,1,3.49,1.182,3.206,3.206,0,0,0,4.029,0c1.626-1.3,3.747-1.53,6.306-.683a.92.92,0,0,1,.643.719A1.056,1.056,0,0,1,32.259,4.4C30.6,5.8,29.123,9.355,28.846,10.16a.976.976,0,0,1-.909.674H19.885a.975.975,0,0,1-.909-.674,18.73,18.73,0,0,0-3.9-5.763A1.054,1.054,0,0,1,14.7,3.384Z" transform="translate(1.007)" fill="#fff"/><path d="M32.785,14.082A1.084,1.084,0,0,0,31.7,13a1.059,1.059,0,0,0-.542.166A1.049,1.049,0,0,0,30.618,13h-13a1.084,1.084,0,0,0,0,2.167h13v1.084H18.7a1.084,1.084,0,1,0,0,2.167H31.62A5.362,5.362,0,0,0,38.9,18.1a1.083,1.083,0,0,0-1.532-1.532,3.325,3.325,0,0,1-4.579.015Z" transform="translate(1.342 1.086)" fill="#fff"/><path d="M22.7,26c-6.947,0-15.17,8.81-15.17,16.253a1.084,1.084,0,0,0,2.167,0c0-6.187,7.291-14.086,13-14.086A1.084,1.084,0,1,0,22.7,26Z" transform="translate(0.59 2.172)" fill="#fff"/><path d="M53.631,33.084a34.336,34.336,0,0,0-3.789.218,21.444,21.444,0,0,0-5.813-6.831l-7.8-5.3A9.632,9.632,0,0,0,30.541,19H22.114a9.353,9.353,0,0,0-5.743,1.974L8.7,26.56A21.241,21.241,0,0,0,2.687,52.747c1.64,3.234,4.381,7.143,8.128,7.4.294.02.591.03.89.03H32.789a8.645,8.645,0,0,0,14.165-.942,23.209,23.209,0,0,0,6.677.942c5.211,0,10.835-1.657,10.835-4.334V49.88h-.086a1.9,1.9,0,0,0,.086-.542V36.878C64.466,33.883,57.655,33.084,53.631,33.084Zm8.586,3.783a.758.758,0,0,1-.073.07c-.042.034-.093.069-.151.106s-.158.093-.252.141c-.077.039-.157.079-.249.119-.114.051-.248.1-.386.154-.111.041-.222.082-.348.125-.158.052-.34.1-.523.155-.143.04-.284.081-.442.12-.206.051-.438.1-.669.144-.174.036-.34.073-.529.106-.26.046-.55.085-.838.124-.2.027-.379.057-.588.081-.341.039-.717.066-1.092.093-.191.014-.364.034-.563.046-.592.033-1.218.052-1.886.052s-1.295-.02-1.886-.052c-.2-.011-.373-.03-.563-.046-.375-.028-.751-.055-1.092-.093-.209-.024-.392-.054-.588-.081-.287-.039-.578-.078-.838-.124-.189-.034-.354-.07-.529-.106-.231-.048-.463-.094-.669-.144-.158-.039-.3-.079-.442-.12-.183-.051-.364-.1-.523-.155-.126-.041-.237-.083-.348-.125-.138-.052-.272-.1-.386-.154-.092-.04-.172-.08-.249-.119-.094-.049-.181-.1-.252-.141a1.621,1.621,0,0,1-.151-.106.646.646,0,0,1-.067-.065c.013-.011.022-.022.037-.034a1.757,1.757,0,0,1,.154-.108,3.423,3.423,0,0,1,.326-.183c.07-.036.14-.07.222-.106s.184-.076.283-.115c.117-.046.245-.091.38-.137.1-.033.192-.066.3-.1.243-.074.508-.146.8-.217.134-.032.29-.062.437-.092.177-.038.358-.075.549-.109.211-.038.436-.074.667-.108a29.592,29.592,0,0,1,4.426-.312C58.746,35.251,61.61,36.308,62.217,36.867ZM45.694,45.781c.1.041.2.08.3.12.189.074.381.143.581.211.105.036.208.07.315.1.229.072.464.138.7.2.085.023.166.048.251.068.328.082.664.158,1.009.225.072.014.146.025.219.039q.414.078.84.142c.121.018.244.034.366.05.244.033.489.062.737.088l.39.038c.256.023.513.04.77.055.115.006.23.015.345.021.371.016.74.027,1.108.027s.738-.011,1.108-.027c.117-.005.234-.014.351-.021.255-.015.509-.033.763-.054.133-.012.267-.025.4-.039q.366-.037.726-.087c.126-.016.251-.032.376-.051.28-.041.555-.089.827-.14.077-.014.155-.026.232-.041q.514-.1,1-.224c.091-.023.178-.049.268-.073.235-.063.466-.128.689-.2.109-.035.215-.07.321-.106q.3-.1.579-.21c.1-.039.2-.079.3-.12.2-.082.38-.169.559-.258.056-.028.12-.052.174-.08l.006,3.818c-.255.617-3.055,1.99-7.472,2.21-.4.014-.78.034-1.208.034a20.232,20.232,0,0,1-6.546-1.01l-.021-.033c-.128-.223-.263-.441-.41-.651-.022-.031-.047-.061-.069-.092-.135-.19-.275-.375-.426-.553-.046-.053-.094-.1-.141-.155-.133-.151-.268-.3-.411-.44-.074-.073-.153-.138-.229-.208-.126-.115-.249-.23-.38-.337-.013-.011-.024-.023-.037-.033,0-.424,0-1.365,0-2.55.055.029.121.054.178.082C45.32,45.614,45.5,45.7,45.694,45.781ZM31.379,58.006H11.7c-.25,0-.5-.009-.745-.025-2.129-.144-4.381-2.351-6.34-6.214a19.06,19.06,0,0,1,5.39-23.479L17.678,22.7a7.211,7.211,0,0,1,4.435-1.534H30.54a7.6,7.6,0,0,1,4.417,1.759l7.8,5.3a19.172,19.172,0,0,1,4.816,5.419,10.174,10.174,0,0,0-3.609,1.347l-.075.052a3.531,3.531,0,0,0-.378.315c-.049.047-.092.094-.137.143a2.452,2.452,0,0,0-.235.291,2.109,2.109,0,0,0-.141.262,2.022,2.022,0,0,0-.111.242,1.856,1.856,0,0,0-.1.579v9.848a8.506,8.506,0,0,0-1.131-.365c-.051-.013-.1-.027-.153-.039a8.572,8.572,0,0,0-1.162-.193c-.044,0-.089,0-.133-.007-.222-.017-.445-.034-.672-.034-.119,0-.234.013-.352.017-.092,0-.184.008-.276.014a8.732,8.732,0,0,0-1.138.15.153.153,0,0,0-.022,0c-.029.007-.056.018-.086.025a8.283,8.283,0,0,0-.993.288c-.117.041-.234.082-.349.128a8.594,8.594,0,0,0-.938.438c-.114.062-.22.133-.33.2-.211.129-.417.264-.615.411-.117.086-.235.169-.348.26a8.55,8.55,0,0,0-.727.66c-.1.1-.193.21-.288.317-.163.182-.317.372-.464.567-.079.106-.163.207-.237.316a8.578,8.578,0,0,0-.518.871c-.061.117-.116.236-.172.356a8.5,8.5,0,0,0-.33.816c-.028.081-.063.158-.088.241a8.584,8.584,0,0,0-.258,1.1c-.009.048-.026.093-.034.141s-.009.121-.016.18c-.035.255-.056.513-.068.774,0,.093-.013.185-.014.28,0,.04-.007.079-.007.119,0,.172.016.34.026.509A10.386,10.386,0,0,0,31.379,58.006Zm8.166,3.251a6.506,6.506,0,0,1-6.5-6.424c0-.085,0-.168.005-.252,0-.119.009-.237.018-.355.008-.1.02-.2.031-.3s.028-.2.046-.3a6.292,6.292,0,0,1,.2-.83c.009-.029.022-.056.031-.085a6.34,6.34,0,0,1,.327-.794l.036-.074a6.683,6.683,0,0,1,2.623-2.753l.012-.008a6.43,6.43,0,0,1,.791-.374c.07-.028.142-.053.212-.078a6.074,6.074,0,0,1,.738-.216c.035-.008.067-.02.1-.026a6.639,6.639,0,0,1,.941-.117c.06,0,.119-.008.18-.009a6.484,6.484,0,0,1,.952.036l.053.009a6.374,6.374,0,0,1,.983.2l.014,0a6.858,6.858,0,0,1,1.821.844l.043.03c.038.026.073.055.109.081a6.535,6.535,0,0,1,.518.412c.04.035.079.072.118.107a6.621,6.621,0,0,1,.472.483l.046.05a6.484,6.484,0,0,1,.88,1.32c.055.108.111.218.159.329.082.19.154.381.218.575,0,.014.011.028.015.042.063.2.114.4.157.6,0,.016.009.031.012.047.041.2.072.4.094.6,0,.018.007.035.009.053a6.51,6.51,0,0,1,.035.667,6.581,6.581,0,0,1-.037.686c0,.034-.011.065-.015.1-.024.2-.053.391-.1.583,0,.022-.012.042-.016.064-.047.206-.1.41-.169.611l-.01.026q-.107.315-.247.622A6.513,6.513,0,0,1,39.545,61.256Zm14.086-3.251a21.254,21.254,0,0,1-5.785-.765.014.014,0,0,0,0-.007,8.694,8.694,0,0,0,.243-1.081c.014-.088.028-.174.04-.263a8.708,8.708,0,0,0,.083-1.134c0-.281-.015-.559-.042-.835-.01-.1-.027-.2-.04-.295-.018-.14-.031-.281-.056-.418a31.183,31.183,0,0,0,5.556.465c2.59,0,6.333-.33,8.673-1.364l.007,3.454C62.033,56.432,58.744,58.006,53.631,58.006Zm0-13c-5.1,0-8.377-1.561-8.663-2.161,0-1.235,0-2.489,0-3.533.027.012.06.022.088.034.259.111.53.215.818.31l.047.015c.295.1.606.181.923.26.1.026.211.05.317.074.232.053.466.1.705.15.116.023.231.044.348.065.263.047.528.088.8.127l.252.038c.35.047.7.088,1.048.121.088.009.173.015.261.023.268.024.532.046.794.063l.336.021c.243.014.479.025.713.034l.294.011c.317.009.627.014.92.014s.6-.005.919-.014l.3-.011c.232-.009.467-.02.709-.034l.34-.021q.393-.026.8-.064c.087-.008.171-.014.258-.023.349-.035.7-.075,1.049-.122l.256-.038q.4-.057.793-.127c.118-.021.233-.043.349-.065.239-.047.475-.1.708-.151.106-.025.212-.048.316-.074.324-.081.64-.168.941-.265l.043-.015c.283-.093.55-.2.805-.3.03-.013.066-.024.1-.037l.007,3.454C62.033,43.43,58.744,45,53.631,45Z" transform="translate(0 1.587)" fill="#fff"/></g></svg>