<svg xmlns="http://www.w3.org/2000/svg" width="45.399" height="46.372" viewBox="0 0 45.399 46.372"><path d="M21.735.431a21.409,21.409,0,0,0-8.359,2.287c-.984.49-1.058.546-1.058.792,0,.3.083.338,1.121.544A38.769,38.769,0,0,1,33.05,14.435c.839.807.884.836,1.12.713.173-.09.181-.127.181-.823a39.069,39.069,0,0,0-1.4-9.61c-.713-2.552-.735-2.579-2.49-3.171A22.673,22.673,0,0,0,21.735.431m13,3.355c-.19.151-.184.256.059.949a40.043,40.043,0,0,1,.95,22.745c-.23.9-.238,1.006-.089,1.157.174.176.313.144.9-.21a39.522,39.522,0,0,0,8.468-7.04,2.164,2.164,0,0,0,.59-2.4A22.768,22.768,0,0,0,36.626,4.715c-1.4-1-1.644-1.122-1.887-.929M9.786,5.18c-.983.194-3.608,2.826-5.186,5.2A22.4,22.4,0,0,0,.693,22.1L.666,22.9l.126.1c.27.214.366.157,1.061-.643A39.24,39.24,0,0,1,20.84,10.3c1.176-.326,1.275-.6.4-1.095A39.205,39.205,0,0,0,10.382,5.178a1.147,1.147,0,0,0-.6,0m14.526,7.683a37.673,37.673,0,0,0-8.151,2.8c-1.046.5-1.16.682-1.728,2.716-.814,2.92-1.523,7.5-1.3,8.4.26,1.03,3.739,4.411,6.859,6.666,1.231.89,1.3.893,3.879.21,2.722-.721,6.631-2.268,7.3-2.889.7-.649,1.772-5.074,2.159-8.894.181-1.789.132-1.984-.742-2.958A38.924,38.924,0,0,0,26.6,13.537c-1.138-.825-1.324-.879-2.292-.674M10.63,17.845c-1.287.524-5.329,3.649-7.457,5.765C.837,25.934.757,26.089,1.077,27.7a22.718,22.718,0,0,0,9.949,14.839c.583.376.656.4.838.308.271-.141.264-.244-.082-1.274a39.925,39.925,0,0,1-.821-22.639,5.825,5.825,0,0,0,.157-.743.4.4,0,0,0-.488-.345m34.7,5.783c-.089.093-.441.491-.783.885a39.154,39.154,0,0,1-18.7,11.761c-.933.264-1.146.448-.9.776.453.6,5.582,2.81,8.5,3.656,3.2.928,3.541.926,4.647-.023a22.923,22.923,0,0,0,7.888-16.129c.032-.833.016-.933-.162-1.026-.2-.105-.309-.083-.484.1M12.407,31.5l-.1.111.027,1.065a38.655,38.655,0,0,0,1.458,9.445c.646,2.265.7,2.328,2.327,2.883A22.319,22.319,0,0,0,33.3,43.864c.922-.459,1.055-.558,1.055-.792,0-.3-.062-.329-1.111-.543a38.77,38.77,0,0,1-19.726-10.5c-.726-.719-.867-.787-1.106-.53" transform="translate(-0.616 -0.097)" fill="#0040bf" fill-rule="evenodd"/><path d="M6.536,63.066l-.13.175.144-.158c.134-.147.165-.191.13-.191a1.245,1.245,0,0,0-.144.175m26.555,8.37c.243.3.452.537.465.537a6.582,6.582,0,0,0-.42-.537c-.243-.3-.452-.537-.465-.537a6.581,6.581,0,0,0,.42.537m-2.575,2.741a1.358,1.358,0,0,0,.2.215.919.919,0,0,0-.151-.215,1.356,1.356,0,0,0-.2-.215.922.922,0,0,0,.151.215M31.8,75.735a1.351,1.351,0,0,0,.2.215.925.925,0,0,0-.151-.215,1.345,1.345,0,0,0-.2-.215.922.922,0,0,0,.151.215m4.961.591c0,.1.009.146.02.094a.533.533,0,0,0,0-.188c-.011-.052-.02-.009-.02.094m8.792,1.4c0,.1.009.146.02.094a.528.528,0,0,0,0-.188c-.011-.052-.02-.01-.02.094M2.54,79.51l-.13.175.144-.158a1.258,1.258,0,0,0,.144-.175c0-.042-.037,0-.158.158M.489,80.975c0,.118.01.16.02.093a.71.71,0,0,0,0-.215c-.011-.051-.02,0-.019.122m2.474,1.2-.376.47.389-.455c.361-.423.409-.485.376-.485-.007,0-.182.212-.389.47m42.86.363c0,.118.01.16.02.093a.709.709,0,0,0,0-.215c-.011-.051-.02,0-.019.121M2.363,82.9l-.176.228.189-.212c.176-.2.209-.244.176-.244a2.215,2.215,0,0,0-.189.228m40.451,2.311-.577.712.588-.7c.547-.648.608-.726.577-.726-.006,0-.271.32-.588.712m-42.059.6c0,.118.01.16.02.093a.709.709,0,0,0,0-.215c-.011-.051-.02,0-.019.121m8.791,1.37c0,.1.009.146.02.094a.528.528,0,0,0,0-.188c-.011-.052-.02-.009-.02.094m0,2.58c0,.1.009.146.02.094a.528.528,0,0,0,0-.188c-.011-.052-.02-.009-.02.094m4.208,2.973a1.264,1.264,0,0,0,.144.175l.144.158-.13-.175c-.122-.163-.158-.2-.158-.158m-6.683,8.474a6.284,6.284,0,0,0,.42.484,5.263,5.263,0,0,0-.376-.484,6.265,6.265,0,0,0-.42-.484,5.3,5.3,0,0,0,.376.484m32.125-.027a1.2,1.2,0,0,0-.174.242,1.686,1.686,0,0,0,.218-.242,1.194,1.194,0,0,0,.174-.242,1.679,1.679,0,0,0-.218.242m-16.262,8.074a3.337,3.337,0,0,0,.466,0c.128-.011.023-.02-.233-.02s-.361.009-.233.02" transform="translate(-0.452 -62.891)" fill="#0040bf" fill-rule="evenodd"/><path d="M50.818,57.5a1.059,1.059,0,0,0,.175.082c.012,0-.046-.037-.13-.082a1.059,1.059,0,0,0-.175-.082c-.012,0,.046.037.13.082m-5.1,3.86c0,.077.009.106.019.064a.328.328,0,0,0,0-.14c-.01-.035-.018,0-.018.076m2.6,1.345c0,.1.008.136.018.088a.536.536,0,0,0,0-.175c-.01-.048-.018-.009-.018.088m0,.69c0,.077.009.106.019.064a.328.328,0,0,0,0-.14c-.01-.035-.018,0-.018.076m9.154,3.053c0,.045.009.063.021.041a.1.1,0,0,0,0-.082c-.011-.023-.021,0-.021.041m-44.254.17-.132.076.146-.069a1.067,1.067,0,0,0,.146-.076c0-.018-.037,0-.16.069M20.8,68.509c0,.071.008.1.019.064a.273.273,0,0,0,0-.129c-.01-.035-.019-.006-.019.064m5.507.614c.259.138.476.251.483.251.032,0-.022-.03-.47-.258l-.483-.245.471.251m-5.506.088c0,.1.008.136.018.088a.535.535,0,0,0,0-.175c-.01-.048-.018-.009-.018.088m2.6,1.345c0,.077.009.106.019.064a.326.326,0,0,0,0-.14c-.01-.035-.018,0-.018.076M51.13,74.234l-.155.088.168-.081c.157-.075.189-.095.155-.095a1.509,1.509,0,0,0-.168.088m-.7.363-.132.076.146-.069a1.076,1.076,0,0,0,.146-.076c0-.018-.037,0-.16.069m-16.6,3.332a1.222,1.222,0,0,0,.2,0c.056-.006.01-.01-.1-.01s-.157,0-.1.01m1.257,0a1.222,1.222,0,0,0,.2,0c.056-.006.01-.01-.1-.01s-.157,0-.1.01" transform="translate(-12.102 -31.815)" fill="#0040bf" fill-rule="evenodd"/><path d="M23.228.161a4.111,4.111,0,0,0,.473,0c.13-.009.024-.016-.236-.016s-.366.007-.236.016m16.211,6.4a.983.983,0,0,0,.175.157c.012,0-.046-.071-.13-.157a.982.982,0,0,0-.175-.157c-.012,0,.046.071.13.157M7.152,6.9l-.314.325.326-.312c.3-.29.347-.337.314-.337-.007,0-.154.146-.326.325m32.782.137a1.113,1.113,0,0,0,.146.146l.146.132-.132-.146c-.123-.136-.16-.166-.16-.132m-5.3,6.8c0,.111.009.156.02.1a.637.637,0,0,0,0-.2c-.011-.055-.02-.01-.02.1m2.612,3.607c0,.172.008.238.018.145a1.666,1.666,0,0,0,0-.314c-.01-.079-.018,0-.018.169M4,19.762l-.132.146.146-.132a1.117,1.117,0,0,0,.146-.146c0-.035-.037,0-.16.132m-.83.818a1.021,1.021,0,0,0-.176.2,1.55,1.55,0,0,0,.221-.2,1.019,1.019,0,0,0,.176-.2,1.553,1.553,0,0,0-.221.2M.481,21.946c0,.086.009.122.021.078a.367.367,0,0,0,0-.157c-.011-.043-.021-.008-.021.078m43.682.571-.517.526.529-.514c.491-.478.549-.538.517-.538-.007,0-.245.237-.529.526m-34.5,6.171c0,.172.008.238.018.145a1.665,1.665,0,0,0,0-.314c-.01-.08-.018,0-.018.169m4.8-.277a1.12,1.12,0,0,0,.146.146l.146.132-.132-.146c-.123-.136-.16-.166-.16-.132M13.3,31.6a5.121,5.121,0,0,0,.4.381,4.078,4.078,0,0,0-.358-.381,5.122,5.122,0,0,0-.4-.381,4.1,4.1,0,0,0,.358.381m-1.023.694c0,.111.009.156.019.1a.636.636,0,0,0,0-.2c-.011-.056-.019-.01-.019.1M36.8,41.241a.368.368,0,0,0,.157,0c.043-.011.008-.02-.079-.02s-.122.009-.079.02M22.441,45.99a.372.372,0,0,0,.157,0c.043-.011.008-.021-.079-.021s-.122.009-.079.021m1.89,0a.372.372,0,0,0,.157,0c.043-.011.008-.021-.079-.021s-.122.009-.079.021" transform="translate(-0.445 0.12)" fill="#0040bf" fill-rule="evenodd"/><path transform="translate(0 0.254)" fill="#0040bf" fill-rule="evenodd"/></svg>